<svg xmlns="http://www.w3.org/2000/svg" viewBox="0 0 3852.46 1316.08"><defs><style>.a,.d{fill:#9d0300;}.b,.c{fill:#2d385c;}.c,.d{font-size:170.71px;font-family:Messenger-Regular, Messenger;}</style></defs><title>Odbody Logo</title><path d="M1479.08,1510.79H583.8a127.07,127.07,0,0,1-113.66-183.9l13.09-26.17a35.23,35.23,0,0,0,1.89-26.69L255.8,595.16H102.05a47.69,47.69,0,0,1,0-95.38h154.7a94,94,0,0,1,89.11,64l229.69,679.94a129.6,129.6,0,0,1-7,99.69l-13.09,26.17a31.7,31.7,0,0,0,28.35,45.87h895.28a47.69,47.69,0,1,1,0,95.38Z" transform="translate(-54.37 -401.37)"></path><path d="M757.38,1526.69a95.38,95.38,0,1,0,95.38,95.38A95.38,95.38,0,0,0,757.38,1526.69Zm0,139.89a44.51,44.51,0,1,1,44.51-44.51A44.51,44.51,0,0,1,757.38,1666.58Z" transform="translate(-54.37 -401.37)"></path><path d="M1339.19,1526.69a95.38,95.38,0,1,0,95.38,95.38A95.38,95.38,0,0,0,1339.19,1526.69Zm0,139.89a44.51,44.51,0,1,1,44.51-44.51A44.51,44.51,0,0,1,1339.19,1666.58Z" transform="translate(-54.37 -401.37)"></path><path class="a" d="M933.52,892.09h646.19a13.8,13.8,0,0,1,13,18.43l-17,47.83a21.29,21.29,0,0,1-20,14.15H954.52a20.41,20.41,0,0,1-19.45-14.23L920,910.64A14.24,14.24,0,0,1,933.52,892.09Z" transform="translate(-54.37 -401.37)"></path><path class="a" d="M848.64,686.25l-20.37-64.11a14.24,14.24,0,0,1,13.57-18.56h676.09c60.37,0,108.22,42,123.41,96l-773.22.91A20.41,20.41,0,0,1,848.64,686.25Z" transform="translate(-54.37 -401.37)"></path><path class="a" d="M1619.64,755.61c13.58,0,23.42,13.39,18.87,26.19,0,.09-.07.18-.1.27l-12.71,35.78a27.36,27.36,0,0,1-25.78,18.2H911.18a20.41,20.41,0,0,1-19.45-14.23l-15.05-47.36a14.24,14.24,0,0,1,13.57-18.55Z" transform="translate(-54.37 -401.37)"></path><path class="a" d="M594.61,1165l7.83,24.62C614.3,1227,648,1252.17,686,1252.17h645.65c65.88,0,126.26-33.4,163.15-87.17Z" transform="translate(-54.37 -401.37)"></path><path class="a" d="M556.08,1043.73l14.8,46.57a26.75,26.75,0,0,0,25.5,18.66h910.74a21.28,21.28,0,0,0,20.05-14.15l17-47.84a13.8,13.8,0,0,0-13-18.43h-964A11.66,11.66,0,0,0,556.08,1043.73Z" transform="translate(-54.37 -401.37)"></path><path class="b" d="M881.32,948.83l-18-56.74-.09-.35-18-55.69h.32L820,756l-17.59-55.39L781.27,633.9a43.51,43.51,0,0,0-41.45-30.32H467.94c-25.5,0-43.53,25.75-35.59,50.78l94.07,296a31.67,31.67,0,0,0,30.19,22.09H864A18.17,18.17,0,0,0,881.32,948.83ZM518.38,707.55h40.4l12.48-38.42,12.49,38.42h40.39L591.46,731.3,604,769.72,571.26,746l-32.68,23.75,12.48-38.42ZM637.2,910.84,604.51,887.1l-32.68,23.74,12.49-38.42-32.69-23.74H592l12.48-38.42L617,848.68h40.4l-32.69,23.74Zm14.67-203.29h40.4l12.48-38.42,12.48,38.42h40.4L725,731.3l12.48,38.42L704.75,746l-32.68,23.75,12.48-38.42ZM770.68,910.84,738,887.1l-32.68,23.74,12.48-38.42-32.68-23.74h40.4L738,810.26l12.48,38.42h40.4L758.2,872.42Z" transform="translate(-54.37 -401.37)"></path><text class="c" transform="translate(314.43 144.76)">odbody</text><text class="d" transform="translate(1088.12 144.76)">.com</text></svg>