<?xml version="1.0" encoding="utf-8"?>
<!-- Generator: Adobe Illustrator 17.0.0, SVG Export Plug-In . SVG Version: 6.00 Build 0)  -->
<!DOCTYPE svg PUBLIC "-//W3C//DTD SVG 1.1//EN" "http://www.w3.org/Graphics/SVG/1.1/DTD/svg11.dtd">
<svg version="1.1" id="Layer_1" xmlns="http://www.w3.org/2000/svg" xmlns:xlink="http://www.w3.org/1999/xlink" x="0px" y="0px"
	 width="1025px" height="1024px" viewBox="0 0 1025 1024" enable-background="new 0 0 1025 1024" xml:space="preserve">
<g><path d="M1004 417.498h-128c-11.046 0-20 8.956-20 20v101c0 11.044 8.954 20 20 20s20-8.956 20-20v-81h88v526.502h-88v-295.502c0-11.044-8.954-20-20-20s-20 8.956-20 20v295.502h-40v-414c0-11.044-8.954-20-20-20h-128c-11.046 0-20 8.956-20 20v414h-40v-274c0-11.044-8.954-20-20-20h-128c-11.046 0-20 8.956-20 20v274h-40v-159.25c0-11.044-8.954-20-20-20h-128c-11.046 0-20 8.956-20 20v159.25h-172c-11.028 0-20-8.972-20-20v-904c0-11.028 8.972-20 20-20h515.95v132.006c0 33.084 26.916 60 60 60h132v245.994c0 11.044 8.954 20 20 20s20-8.956 20-20v-265.994c0-5.304-2.108-10.39-5.858-14.142l-192-192.006c-3.752-3.75-8.838-5.858-14.142-5.858h-535.95c-33.084 0-60 26.916-60 60v904c0 33.084 26.916 60 60 60h944c11.046 0 20-8.956 20-20v-566.502c0-11.044-8.954-20-20-20zM615.95 68.286l123.718 123.72h-103.718c-11.030 0-20-8.972-20-20v-103.72zM360 984h-88v-139.25h88v139.25zM568 984h-88v-254h88v254zM776 984h-88v-394h88v394z"></path><path d="M890.14 595.64c-3.72-3.738-8.88-5.86-14.14-5.86s-10.42 2.122-14.14 5.86c-3.72 3.72-5.86 8.88-5.86 14.14s2.14 10.42 5.86 14.14c3.72 3.718 8.88 5.86 14.14 5.86s10.42-2.14 14.14-5.86 5.86-8.88 5.86-14.14-2.14-10.42-5.86-14.14z"></path><path d="M291.154 109.458c-11.046 0-20 8.956-20 20v35.978c-92.062 9.994-163.95 88.194-163.95 182.87 0 101.43 82.52 183.95 183.95 183.95 94.676 0 172.876-71.886 182.87-163.95h35.976c11.046 0 20-8.956 20-20 0-131.702-107.146-238.848-238.846-238.848zM291.154 492.254c-79.374 0-143.95-64.576-143.95-143.95 0-72.586 54.010-132.798 123.95-142.564v142.564c0 11.044 8.954 20 20 20h142.564c-9.766 69.94-69.978 123.95-142.564 123.95zM311.154 328.306v-177.85c93.704 9.404 168.444 84.146 177.848 177.85h-177.848z"></path><path d="M510 588.5h-382c-11.046 0-20 8.956-20 20s8.954 20 20 20h382c11.046 0 20-8.956 20-20s-8.954-20-20-20z"></path><path d="M256 685h-128c-11.046 0-20 8.956-20 20s8.954 20 20 20h128c11.046 0 20-8.956 20-20s-8.954-20-20-20z"></path><path d="M370.3 690.86c-3.72-3.72-8.88-5.86-14.14-5.86-5.28 0-10.42 2.138-14.14 5.86-3.74 3.72-5.86 8.88-5.86 14.14s2.12 10.42 5.86 14.138c3.72 3.72 8.86 5.862 14.14 5.862 5.26 0 10.42-2.14 14.14-5.862 3.72-3.718 5.86-8.878 5.86-14.138s-2.14-10.42-5.86-14.14z"></path></g>
</svg>
