<?xml version="1.0" encoding="utf-8"?>
<!-- Generator: Adobe Illustrator 17.0.0, SVG Export Plug-In . SVG Version: 6.00 Build 0)  -->
<!DOCTYPE svg PUBLIC "-//W3C//DTD SVG 1.1//EN" "http://www.w3.org/Graphics/SVG/1.1/DTD/svg11.dtd">
<svg version="1.1" id="Layer_1" xmlns="http://www.w3.org/2000/svg" xmlns:xlink="http://www.w3.org/1999/xlink" x="0px" y="0px"
	 width="1025px" height="1024px" viewBox="0 0 1025 1024" enable-background="new 0 0 1025 1024" xml:space="preserve">
<g><path d="M877.449 325.679c-33.915-51-102.864-66.005-155.27-31.715l-73.662 48.722c-59.496 39.368-173.171 65.588-271.759-4.744l-71.916-51.263c-50.778-36.092-120.405-23.705-156.082 26.28-35.885 50.381-24.105 120.398 26.077 156.279l71.92 51.063c21.535 15.378 45.101 28.992 70.098 40.83l-0.789 45.193-110.545 110.488c-39.015 34.924-48.612 91.966-22.416 138.23l74.63 113.52c20.059 31.155 54.922 50.766 92.317 51.419 19.997 0.349 39.688-4.708 57.064-14.606 26.265-14.944 105.998-79.162 7.368-192.901l37.199-22.554c30.010 11.125 75.603 11.921 106.184 1.853l36.389 23.839c-102.539 110.227-25.096 177.189 0.631 193.040 17.019 10.499 36.522 16.24 56.519 16.589 37.394 0.653 72.721-17.734 94.055-48.166l78.546-110.846c27.795-45.322 19.995-102.667-17.578-138.928l-106.422-114.275 0.789-45.193c25.392-10.758 49.222-23.745 71.48-38.358l73.658-48.522c51.403-34.108 65.623-103.871 31.515-155.274zM393.626 884.32c13 23.030 4.888 52.293-18.146 65.493-7.679 4.467-16.113 6.32-24.511 6.173-16.398-0.286-32.248-8.964-40.982-24.319l-71.325-108.061c-11.642-20.606-6.586-46.722 12.073-61.399l79.026-81.033c1.372 1.624 1.937 3.634 3.309 5.259l69.161 71.618-59.758 54.365 51.153 71.904zM562.374 716.839c-26.857 25.935-87.434 24.078-112.383-1.962l-70.536-73.042 0.373-21.397 255.961 4.468-0.373 21.397-73.042 70.536zM759.658 771.091c18.135 15.319 22.277 41.595 9.923 61.783l-75.053 105.506c-9.264 15.041-25.408 23.16-41.806 22.874-8.199-0.143-16.559-2.489-24.281-7.025-22.563-13.796-29.645-43.524-15.849-66.087l53.435-70.278-57.824-56.418 71.618-69.161c1.424-1.375 2.262-3.561 3.49-5.14l76.347 83.945zM810.461 427.525l-73.458 48.525c-31.162 20.459-64.636 35.877-99.437 47.072l-0.66 37.794-255.961-4.468 0.66-37.794c-34.389-12.402-67.308-28.779-97.733-50.513l-71.72-51.059c-52.157-37.316 4.4-114.541 55.774-78.239l71.72 51.059c93.255 66.438 233.248 79.483 344.148 6.007l73.458-48.525c52.81-34.484 106.637 44.668 53.209 80.141zM513.115 318.719c88.387 1.543 161.225-68.797 162.768-157.183s-68.797-161.225-157.183-162.768-161.225 68.797-162.768 157.183 68.797 161.225 157.183 162.768zM517.583 62.758c52.992 0.925 95.235 44.669 94.31 97.661s-44.669 95.235-97.661 94.31-95.235-44.669-94.31-97.661 44.669-95.235 97.661-94.31z"></path></g>
</svg>
