<?xml version="1.0" encoding="utf-8"?>
<!-- Generator: Adobe Illustrator 17.0.0, SVG Export Plug-In . SVG Version: 6.00 Build 0)  -->
<!DOCTYPE svg PUBLIC "-//W3C//DTD SVG 1.1//EN" "http://www.w3.org/Graphics/SVG/1.1/DTD/svg11.dtd">
<svg version="1.1" id="Layer_1" xmlns="http://www.w3.org/2000/svg" xmlns:xlink="http://www.w3.org/1999/xlink" x="0px" y="0px"
	 width="1025px" height="1024px" viewBox="0 0 1025 1024" enable-background="new 0 0 1025 1024" xml:space="preserve">
<g><path d="M964.086 543.595c-0.98-11.508-8.386-20.958-19.328-24.664l-88.781-30.064 86.431-99.161c5.738-6.582 8.138-15.286 6.588-23.878-1.552-8.592-6.846-15.906-14.524-20.066l-111.507-60.414c-7.286-3.946-16.386-1.242-20.336 6.042-3.946 7.284-1.24 16.388 6.042 20.334l109.975 59.584-92.107 105.671-290.924-157.627 53.982-61.93c6.212 2.28 12.92 3.524 19.912 3.524 21.71 0 40.66-12.006 50.586-29.72l83.358 45.164c2.272 1.23 4.718 1.814 7.132 1.814 5.328 0 10.486-2.844 13.204-7.858 3.946-7.284 1.24-16.388-6.044-20.334l-90.329-48.938c-1.018-31.070-26.592-56.036-57.906-56.036-31.956 0-57.954 25.998-57.954 57.954 0 14.070 5.044 26.98 13.412 37.030l-52.968 60.768-93.843-107.659c-8.86-10.166-23.326-12.78-35.188-6.356l-36.682 19.874c-4.298-33.99-33.372-60.37-68.51-60.37-38.088 0-69.076 30.988-69.076 69.078 0 21.060 9.486 39.938 24.396 52.618l-143.569 77.786c-7.676 4.16-12.968 11.472-14.522 20.066-1.55 8.592 0.85 17.296 6.588 23.876l86.429 99.161-88.779 30.062c-10.942 3.706-18.348 13.156-19.328 24.664s4.72 22.076 14.876 27.578l104.255 56.484v56.618c0 8.284 6.714 15 15 15s15-6.716 15-15v-40.364l145.857 79.024c6.222 3.372 13.164 5.086 20.132 5.086 4.556 0 9.126-0.734 13.51-2.218l108.457-36.722v298.446l-281.564-152.557c-3.942-2.136-6.39-6.248-6.39-10.732v-65.912c0-8.284-6.714-15-15-15s-15 6.716-15 15v65.912c0 15.504 8.466 29.722 22.098 37.108l290.75 157.535c6.296 3.412 13.202 5.116 20.108 5.116s13.812-1.706 20.108-5.116l290.75-157.535c13.63-7.386 22.098-21.604 22.098-37.108v-196.583l104.253-56.484c10.15-5.496 15.852-16.062 14.872-27.572zM545.161 427.551c52.508 14.76 89.181 63.18 89.181 117.751 0 15.196-2.73 29.944-8.126 43.918l-114.215 61.882-114.215-61.882c-5.394-13.974-8.126-28.722-8.126-43.918 0-54.738 36.812-103.201 89.525-117.851 7.98-2.218 12.652-10.488 10.434-18.468-2.216-7.982-10.49-12.652-18.468-10.436-65.642 18.246-111.489 78.592-111.489 146.755 0 8.22 0.666 16.334 1.946 24.318l-136.073-73.726 286.47-155.213 286.468 155.215-136.073 73.726c1.28-7.984 1.946-16.098 1.946-24.318 0-67.954-45.67-128.251-111.063-146.633-7.976-2.244-16.258 2.408-18.498 10.38-2.248 7.976 2.398 16.258 10.376 18.5zM609.51 175.041c15.414 0 27.956 12.54 27.956 27.954s-12.542 27.956-27.956 27.956-27.954-12.542-27.954-27.956 12.54-27.954 27.954-27.954zM277.778 176.283c21.546 0 39.078 17.53 39.078 39.078 0 21.546-17.532 39.078-39.078 39.078s-39.076-17.53-39.076-39.078 17.53-39.078 39.076-39.078zM267.194 283.628c3.452 0.534 6.986 0.812 10.584 0.812 27.956 0 52.066-16.702 62.928-40.642l55.572-30.108 92.105 105.667-290.924 157.627-92.107-105.671zM378.922 697.39c-3.208 1.088-6.756 0.782-9.728-0.83l-167.935-90.987c-0.044-0.024-0.090-0.048-0.134-0.072l-109.229-59.18 100.757-34.118 281.982 152.781zM814.955 824.241c0 4.484-2.45 8.596-6.39 10.732l-281.564 152.557v-298.446l108.457 36.722c4.384 1.484 8.954 2.218 13.512 2.218 6.964 0 13.908-1.716 20.13-5.086l145.857-79.024v180.327zM654.806 696.56c-2.972 1.612-6.52 1.918-9.728 0.83l-95.711-32.406 281.982-152.781 100.757 34.118zM935.135 547.347c-0.002 0-0.004-0.002-0.008-0.002z"></path><path d="M624.18 849.373l-34.41 18.644c-7.284 3.946-9.988 13.050-6.042 20.334 2.716 5.012 7.876 7.858 13.204 7.858 2.412 0 4.862-0.584 7.132-1.814l34.41-18.644c7.284-3.946 9.988-13.050 6.042-20.334s-13.046-9.992-20.336-6.044z"></path><path d="M335.39 126.321c2.93 2.928 6.77 4.394 10.608 4.394s7.678-1.464 10.608-4.394l12.374-12.374 12.374 12.374c2.93 2.928 6.77 4.394 10.608 4.394s7.678-1.464 10.608-4.394c5.858-5.858 5.858-15.356 0-21.212l-12.376-12.376 12.376-12.376c5.858-5.858 5.858-15.356 0-21.212-5.86-5.858-15.356-5.858-21.214 0l-12.374 12.374-12.374-12.374c-5.86-5.858-15.356-5.858-21.214 0s-5.858 15.356 0 21.212l12.376 12.376-12.376 12.376c-5.862 5.856-5.862 15.354-0.004 21.212z"></path><path d="M779.473 224.581c2.93 2.928 6.77 4.394 10.608 4.394s7.678-1.464 10.608-4.394l12.374-12.374 12.374 12.374c2.93 2.928 6.77 4.394 10.608 4.394s7.678-1.464 10.608-4.394c5.858-5.858 5.858-15.356 0-21.212l-12.376-12.376 12.376-12.376c5.858-5.858 5.858-15.356 0-21.212-5.86-5.858-15.356-5.858-21.214 0l-12.374 12.374-12.374-12.374c-5.86-5.858-15.356-5.858-21.214 0s-5.858 15.356 0 21.212l12.376 12.376-12.376 12.376c-5.862 5.856-5.862 15.354-0.004 21.212z"></path><path d="M696.66 130.703c36.036 0 65.352-29.316 65.352-65.35-0.002-36.036-29.318-65.352-65.352-65.352s-65.352 29.316-65.352 65.352c0 36.034 29.316 65.35 65.352 65.35zM696.66 30c19.492 0 35.352 15.858 35.352 35.352 0 19.492-15.86 35.35-35.352 35.35s-35.352-15.858-35.352-35.35c0-19.494 15.86-35.352 35.352-35.352z"></path><path d="M510.307 561.033c-14.452 0-28.092 4.792-38.428 13.508-6.332 5.34-7.138 14.804-1.796 21.136 5.338 6.334 14.802 7.138 21.136 1.798 4.86-4.098 11.812-6.444 19.090-6.444h0.1c7.314 0.022 14.292 2.412 19.15 6.558 2.826 2.412 6.288 3.59 9.73 3.59 4.238 0 8.45-1.786 11.416-5.262 5.378-6.3 4.63-15.77-1.67-21.148-10.328-8.816-24.016-13.696-38.54-13.74-0.062 0.004-0.126 0.004-0.188 0.004z"></path><path d="M446.845 516.611h-0.14c-8.292-0.122-14.974 6.614-15.034 14.896-0.056 8.284 6.682 15.046 14.966 15.104h0.106c8.234 0 14.94-6.648 14.998-14.896 0.058-8.284-6.61-15.046-14.896-15.104z"></path><path d="M574.361 546.303c0.052 0.010 0.106 0.016 0.158 0.026 0.432 0.084 0.87 0.154 1.314 0.2 0.144 0.014 0.29 0.014 0.434 0.024 0.334 0.024 0.668 0.056 1.010 0.058h0.106c0.516 0 1.026-0.026 1.53-0.078 7.574-0.758 13.486-7.15 13.486-14.924 0-7.672-5.762-13.986-13.192-14.88-0.068-0.008-0.134-0.024-0.202-0.030-0.342-0.036-0.692-0.046-1.042-0.060-0.16-0.006-0.316-0.026-0.478-0.028h-0.078c-0.002 0-0.006 0-0.008 0h-0.142c-0.006 0-0.012 0-0.018 0-8.234 0-14.87 6.648-14.928 14.896-0.050 7.286 5.158 13.39 12.050 14.796z"></path></g>
</svg>
