<svg width="1025" height="1024" xmlns="http://www.w3.org/2000/svg" version="1.1" enable-background="new 0 0 1025 1024" xml:space="preserve">
 <g>
  <title>Layer 1</title>
  <g id="svg_1">
   <path d="m968.5,248l-872,0c-6.627,0 -12,-5.373 -12,-12l0,0l0,-48c0,-6.627 5.373,-12 12,-12l0,0l872,0c6.627,0 12,5.373 12,12l0,0l0,48c0,6.627 -5.373,12 -12,12l0,0zm0,320l-872,0c-6.627,0 -12,-5.373 -12,-12l0,0l0,-48c0,-6.627 5.373,-12 12,-12l0,0l872,0c6.627,0 12,5.373 12,12l0,0l0,48c0,6.627 -5.373,12 -12,12l0,0zm0,320l-872,0c-6.627,0 -12,-5.373 -12,-12l0,0l0,-48c0,-6.627 5.373,-12 12,-12l0,0l872,0c6.627,0 12,5.373 12,12l0,0l0,48c0,6.627 -5.373,12 -12,12l0,0z" id="svg_2"/>
  </g>
 </g>

</svg>