<?xml version="1.0" encoding="utf-8"?>
<!-- Generator: Adobe Illustrator 17.0.0, SVG Export Plug-In . SVG Version: 6.00 Build 0)  -->
<!DOCTYPE svg PUBLIC "-//W3C//DTD SVG 1.1//EN" "http://www.w3.org/Graphics/SVG/1.1/DTD/svg11.dtd">
<svg version="1.1" id="Layer_1" xmlns="http://www.w3.org/2000/svg" xmlns:xlink="http://www.w3.org/1999/xlink" x="0px" y="0px"
	 width="1025px" height="1024px" viewBox="0 0 1025 1024" enable-background="new 0 0 1025 1024" xml:space="preserve">
<g><path d="M960 784v-736c0-26.6-21.4-48-48-48h-688c-88.4 0-160 71.6-160 160v736c0 70.7 57.3 128 128 128h744c13.2 0 24-10.8 24-24v-16c0-13.2-10.8-24-24-24h-6.6c-8-40.4-6.4-99.4 0.8-131.6 17.4-7.2 29.8-24.4 29.8-44.4zM872.6 960h-680.6c-35.34 0-64-28.66-64-64s28.66-64 64-64h680.6c-5.8 37.6-6.2 87.2 0 128zM896 768h-704c-23.44 0-45.1 6.76-64 17.76v-625.76c0-53 43-96 96-96h672v704z"></path></g>
</svg>
