<?xml version="1.0" encoding="utf-8"?>
<!-- Generator: Adobe Illustrator 17.0.0, SVG Export Plug-In . SVG Version: 6.00 Build 0)  -->
<!DOCTYPE svg PUBLIC "-//W3C//DTD SVG 1.1//EN" "http://www.w3.org/Graphics/SVG/1.1/DTD/svg11.dtd">
<svg version="1.1" id="Layer_1" xmlns="http://www.w3.org/2000/svg" xmlns:xlink="http://www.w3.org/1999/xlink" x="0px" y="0px"
	 width="1025px" height="1024px" viewBox="0 0 1025 1024" enable-background="new 0 0 1025 1024" xml:space="preserve">
<g><path d="M272 936c0.015 13.249 10.751 23.985 23.999 24l432.001 0c13.249-0.015 23.985-10.751 24-23.999l0-0.001v-56h-480z"></path><path d="M240 432h-103.078l103.078 95.148z"></path><path d="M784 592h103.078l-103.078-95.148z"></path><path d="M272 432h480v160h-480z"></path><path d="M752 88c-0.015-13.249-10.751-23.985-23.999-24l-432.001-0c-13.249 0.015-23.985 10.751-24 23.999l-0 0.001v56h480z"></path><path d="M902.326 176h-701.948l-81.528 224h701.95zM352 240h-60c-2.209 0-4 1.791-4 4v0 88c0 2.209 1.791 4 4 4v0h60v32h-60c-19.873-0.024-35.976-16.127-36-35.998l-0-0.002v-88c0.024-19.873 16.127-35.976 35.998-36l60.002-0zM496 368h-32v-14.758l-5.2-33.242h-37.6l-5.2 33.242v14.758h-32v-16c0.003-0.874 0.075-1.729 0.213-2.563l-0.013 0.093 20-128c1.238-7.708 7.839-13.526 15.8-13.53l40-0c7.961 0.004 14.562 5.822 15.788 13.438l0.012 0.092 20 128c0.125 0.741 0.197 1.596 0.2 2.467l0 0.003zM624 240h-60c-2.209 0-4 1.791-4 4v0 24c0 2.209 1.791 4 4 4v0h24c19.873 0.024 35.976 16.127 36 35.998l0 0.002v24c-0.024 19.873-16.127 35.976-35.998 36l-60.002 0v-32h60c2.209 0 4-1.791 4-4v0-24c0-2.209-1.791-4-4-4v0h-24c-19.873-0.024-35.976-16.127-36-35.998l-0-0.002v-24c0.024-19.873 16.127-35.976 35.998-36l60.002-0zM768 368h-32v-64h-48v64h-32v-160h32v64h48v-64h32z"></path><path d="M433.694 240l-7.5 48h27.612l-7.5-48z"></path><path d="M203.2 624l-81.526 224h701.948l81.528-224zM352 768c-0.032 26.497-21.503 47.968-47.997 48l-48.003 0c-8.837 0-16-7.163-16-16v0-128c0-8.837 7.163-16 16-16v0h48c0.008-0 0.018-0 0.027-0 26.495 0 47.974 21.479 47.974 47.974 0 12.329-4.651 23.572-12.294 32.070l0.039-0.044c7.603 8.43 12.254 19.651 12.254 31.958 0 0.015-0 0.029-0 0.044l0-0.002zM496 816h-32v-14.758l-5.2-33.242h-37.066l-5.734 33.366v14.634h-32v-16c0.001-0.958 0.084-1.896 0.244-2.807l-0.014 0.097 22-128c1.341-7.595 7.89-13.29 15.769-13.29 0 0 0.001 0 0.001 0l38-0c7.961 0.004 14.562 5.822 15.788 13.438l0.012 0.092 20 128c0.125 0.741 0.197 1.596 0.2 2.467l0 0.003zM624 688h-60c-2.209 0-4 1.791-4 4v0 88c0 2.209 1.791 4 4 4v0h60v32h-60c-19.873-0.024-35.976-16.127-36-35.998l-0-0.002v-88c0.024-19.873 16.127-35.976 35.998-36l60.002-0zM768 672c0 0.001 0 0.003 0 0.004 0 5.039-2.329 9.533-5.969 12.466l-0.031 0.024-64.386 51.506 64.386 51.506c3.671 2.957 6 7.451 6 12.49 0 0.001-0 0.003-0 0.004l0-0v16h-32v-8.31l-48-38.4v46.71h-32v-160h32v46.71l48-38.4v-8.31h32z"></path><path d="M435.484 688l-8.25 48h26.572l-7.5-48z"></path><path d="M304 688h-32v32h32c8.837 0 16-7.163 16-16s-7.163-16-16-16v0z"></path><path d="M304 752h-32v32h32c8.837 0 16-7.163 16-16s-7.163-16-16-16v0z"></path></g>
</svg>
