<?xml version="1.0" encoding="utf-8"?>
<!-- Generator: Adobe Illustrator 17.0.0, SVG Export Plug-In . SVG Version: 6.00 Build 0)  -->
<!DOCTYPE svg PUBLIC "-//W3C//DTD SVG 1.1//EN" "http://www.w3.org/Graphics/SVG/1.1/DTD/svg11.dtd">
<svg version="1.1" id="Layer_1" xmlns="http://www.w3.org/2000/svg" xmlns:xlink="http://www.w3.org/1999/xlink" x="0px" y="0px"
	 width="1025px" height="1024px" viewBox="0 0 1025 1024" enable-background="new 0 0 1025 1024" xml:space="preserve">
<g><path d="M956.4 683l-44.4-128c-9-25.8-33.2-43-60.4-43h-19.6v-256c0-141.4-114.6-256-256-256h-128c-141.4 0-256 114.6-256 256v256h-19.6c-27.2 0-51.6 17.2-60.4 43l-44.4 128c-14.4 41.6 16.4 85 60.4 85v240c0 8.8 7.2 16 16 16h32c8.8 0 16-7.2 16-16v-240h640v240c0 8.8 7.2 16 16 16h32c8.8 0 16-7.2 16-16v-240c44 0 74.8-43.4 60.4-85zM640 75.8c74.4 26.4 128 96.8 128 180.2v256h-128v-436.2zM448 64h128v448h-128v-448zM256 256c0-83.4 53.6-153.6 128-180.2v436.2h-128v-256zM128 704l44.4-128h679.2l44.4 128h-768z"></path></g>
</svg>
