<?xml version="1.0" encoding="utf-8"?>
<!-- Generator: Adobe Illustrator 17.0.0, SVG Export Plug-In . SVG Version: 6.00 Build 0)  -->
<!DOCTYPE svg PUBLIC "-//W3C//DTD SVG 1.1//EN" "http://www.w3.org/Graphics/SVG/1.1/DTD/svg11.dtd">
<svg version="1.1" id="Layer_1" xmlns="http://www.w3.org/2000/svg" xmlns:xlink="http://www.w3.org/1999/xlink" x="0px" y="0px"
	 width="1025px" height="1024px" viewBox="0 0 1025 1024" enable-background="new 0 0 1025 1024" xml:space="preserve">
<g><path d="M82.579 908.038h429.421v-33.039h-429.421c-27.364 0-49.548-22.185-49.548-49.548v-726.71c0-27.372 22.185-49.548 49.548-49.548h726.71c27.376 0 49.548 22.176 49.548 49.548v379.868h33.039v-379.868c-0.054-45.587-36.997-82.525-82.587-82.579h-726.71c-45.578 0.054-82.521 36.992-82.579 82.579v726.71c0.058 45.587 37.001 82.525 82.579 82.587zM82.579 908.038z"></path><path d="M66.070 82.232h33.027v33.027h-33.027zM66.070 82.232z"></path><path d="M132.127 82.232h33.039v33.027h-33.039zM132.127 82.232z"></path><path d="M198.193 82.232h33.035v33.027h-33.035zM198.193 82.232z"></path><path d="M66.070 148.289h759.737v33.039h-759.737zM66.070 148.289z"></path><path d="M236.067 219.194l-41.952 41.952c-35.461-23.476-82.947-16.273-109.86 16.662-26.908 32.931-24.495 80.902 5.576 110.969 30.067 30.079 78.042 32.493 110.977 5.58 32.931-26.908 40.139-74.403 16.658-109.856l41.948-41.952zM148.641 379.513c-27.359 0-49.544-22.181-49.544-49.544 0-27.368 22.185-49.544 49.544-49.544 7.369 0.025 14.617 1.714 21.228 4.947l-32.898 32.902 23.348 23.356 32.923-32.882c3.233 6.607 4.926 13.856 4.951 21.22 0 27.364-22.176 49.544-49.552 49.544zM148.641 379.513z"></path><path d="M280.776 280.424h280.768v33.027h-280.768zM280.776 280.424z"></path><path d="M280.776 346.486h115.61v33.027h-115.61zM280.776 346.486z"></path><path d="M429.421 346.486h231.22v33.027h-231.22zM429.421 346.486z"></path><path d="M594.579 280.424h165.162v33.027h-165.162zM594.579 280.424z"></path><path d="M236.067 417.387l-41.952 41.952c-35.461-23.476-82.947-16.273-109.86 16.662-26.908 32.936-24.495 80.902 5.576 110.977 30.067 30.071 78.042 32.484 110.977 5.572 32.931-26.912 40.139-74.391 16.658-109.856l41.948-41.952zM148.641 577.71c-27.359 0-49.544-22.185-49.544-49.548 0-27.368 22.185-49.552 49.544-49.552 7.369 0.029 14.617 1.722 21.228 4.955l-32.898 32.911 23.348 23.348 32.923-32.886c3.233 6.611 4.926 13.86 4.951 21.224 0 27.364-22.176 49.548-49.552 49.548zM148.641 577.71z"></path><path d="M280.776 478.609h280.768v33.035h-280.768zM280.776 478.609z"></path><path d="M280.776 544.679h115.61v33.031h-115.61zM280.776 544.679z"></path><path d="M429.421 544.679h132.123v33.031h-132.123zM429.421 544.679z"></path><path d="M594.579 478.609h66.062v33.035h-66.062zM594.579 478.609z"></path><path d="M236.067 615.58l-41.952 41.952c-35.461-23.476-82.947-16.273-109.86 16.662-26.908 32.936-24.495 80.902 5.576 110.977 30.067 30.075 78.042 32.48 110.977 5.572 32.931-26.912 40.139-74.395 16.658-109.86l41.948-41.948zM148.641 775.903c-27.359 0-49.544-22.185-49.544-49.548 0-27.368 22.185-49.548 49.544-49.548 7.369 0.025 14.617 1.714 21.228 4.951l-32.898 32.911 23.348 23.348 32.923-32.886c3.233 6.611 4.926 13.864 4.951 21.224 0 27.364-22.176 49.548-49.552 49.548zM148.641 775.903z"></path><path d="M280.776 676.806h214.706v33.039h-214.706zM280.776 676.806z"></path><path d="M280.776 742.872h115.61v33.031h-115.61zM280.776 742.872z"></path><path d="M429.421 742.872h66.062v33.031h-66.062zM429.421 742.872z"></path><path d="M776.263 1007.135c136.83 0 247.737-110.928 247.737-247.745 0-136.83-110.907-247.745-247.737-247.745s-247.745 110.915-247.745 247.745c0.161 136.755 110.982 247.58 247.745 247.745zM776.263 544.679c118.574 0 214.71 96.128 214.71 214.71s-96.137 214.706-214.71 214.706c-118.586 0-214.719-96.124-214.719-214.706 0.141-118.524 96.186-214.578 214.719-214.71zM776.263 544.679z"></path><path d="M675.514 768.517l-29.566 14.762 33.035 66.066c2.368 4.752 6.888 8.077 12.134 8.925 0.853 0.132 1.706 0.203 2.562 0.215 4.376 0 8.577-1.743 11.682-4.839l198.185-198.193-23.348-23.356-181.998 181.99zM675.514 768.517z"></path></g>
</svg>
