<?xml version="1.0" encoding="utf-8"?>
<!-- Generator: Adobe Illustrator 17.0.0, SVG Export Plug-In . SVG Version: 6.00 Build 0)  -->
<!DOCTYPE svg PUBLIC "-//W3C//DTD SVG 1.1//EN" "http://www.w3.org/Graphics/SVG/1.1/DTD/svg11.dtd">
<svg version="1.1" id="Layer_1" xmlns="http://www.w3.org/2000/svg" xmlns:xlink="http://www.w3.org/1999/xlink" x="0px" y="0px"
	 width="1025px" height="1024px" viewBox="0 0 1025 1024" enable-background="new 0 0 1025 1024" xml:space="preserve">
<g><path d="M512 128c-212.1 0-384 171.9-384 384v360c0 13.3 10.7 24 24 24h184c35.3 0 64-28.7 64-64v-208c0-35.3-28.7-64-64-64h-136v-48c0-172.3 139.7-312 312-312s312 139.7 312 312v48h-136c-35.3 0-64 28.7-64 64v208c0 35.3 28.7 64 64 64h184c13.3 0 24-10.7 24-24v-360c0-212.1-171.9-384-384-384z"></path></g>
</svg>
