<?xml version="1.0" encoding="utf-8"?>
<!-- Generator: Adobe Illustrator 17.0.0, SVG Export Plug-In . SVG Version: 6.00 Build 0)  -->
<!DOCTYPE svg PUBLIC "-//W3C//DTD SVG 1.1//EN" "http://www.w3.org/Graphics/SVG/1.1/DTD/svg11.dtd">
<svg version="1.1" id="Layer_1" xmlns="http://www.w3.org/2000/svg" xmlns:xlink="http://www.w3.org/1999/xlink" x="0px" y="0px"
	 width="1025px" height="1024px" viewBox="0 0 1025 1024" enable-background="new 0 0 1025 1024" xml:space="preserve">
<g><path d="M938.667 113.778h-853.333c-47.111 0-85.333 38.222-85.333 85.333v625.778c0 47.111 38.222 85.333 85.333 85.333h853.333c47.111 0 85.333-38.222 85.333-85.333v-625.778c0-47.111-38.222-85.333-85.333-85.333zM85.333 170.667h853.333c15.644 0 28.444 12.8 28.444 28.444v85.333h-910.222v-85.333c0-15.644 12.8-28.444 28.444-28.444zM938.667 853.333h-853.333c-15.644 0-28.444-12.8-28.444-28.444v-369.778h910.222v369.778c0 15.644-12.8 28.444-28.444 28.444zM341.333 704v14.222c0 11.733-9.6 21.333-21.333 21.333h-128c-11.733 0-21.333-9.6-21.333-21.333v-14.222c0-11.733 9.6-21.333 21.333-21.333h128c11.733 0 21.333 9.6 21.333 21.333zM682.667 704v14.222c0 11.733-9.6 21.333-21.333 21.333h-241.778c-11.733 0-21.333-9.6-21.333-21.333v-14.222c0-11.733 9.6-21.333 21.333-21.333h241.778c11.733 0 21.333 9.6 21.333 21.333z"></path></g>
</svg>
