<?xml version="1.0" encoding="utf-8"?>
<!-- Generator: Adobe Illustrator 17.0.0, SVG Export Plug-In . SVG Version: 6.00 Build 0)  -->
<!DOCTYPE svg PUBLIC "-//W3C//DTD SVG 1.1//EN" "http://www.w3.org/Graphics/SVG/1.1/DTD/svg11.dtd">
<svg version="1.1" id="Layer_1" xmlns="http://www.w3.org/2000/svg" xmlns:xlink="http://www.w3.org/1999/xlink" x="0px" y="0px"
	 width="1025px" height="1024px" viewBox="0 0 1025 1024" enable-background="new 0 0 1025 1024" xml:space="preserve">
<g><path d="M938.667 199.112h-113.778l-12.729-25.44c-8.604-17.369-31.484-31.449-50.88-31.449h-123.787l-48.498-48.498c-5.035-5.178-12.069-8.391-19.852-8.391-0.008 0-0.016 0-0.024 0l0.001-0c-0.069-0.001-0.15-0.001-0.231-0.001-15.709 0-28.444 12.735-28.444 28.444 0 0 0 0.001 0 0.001l-0-0v312.889h-199.111c-0.008-0-0.018-0-0.028-0-35.061 0-67.64 10.624-94.694 28.829l0.607-0.385h-48.107c-47.108-0.051-85.283-38.225-85.333-85.328l-0-0.005c0-15.709-12.735-28.444-28.444-28.444s-28.444 12.735-28.444 28.444v0c0.17 76.814 61.255 139.304 137.501 141.737l0.223 0.006c-14.888 24.511-23.769 54.107-23.946 85.764l-0 0.050v284.444c0 31.419 25.47 56.889 56.889 56.889v0h113.778c31.419 0 56.889-25.47 56.889-56.889v0-170.667h170.667v170.667c0 31.419 25.47 56.889 56.889 56.889v0h113.778c31.419 0 56.889-25.47 56.889-56.889v0-426.667h56.889c62.838 0 113.778-50.94 113.778-113.778v0-113.778c0-15.709-12.735-28.444-28.444-28.444v0zM739.556 881.778h-113.778v-227.556h-284.444v227.556h-113.778v-284.444c0.071-62.809 50.969-113.707 113.771-113.778l209.891-0 188.338 47.076v351.147zM910.222 341.334c0 31.419-25.47 56.889-56.889 56.889v0h-113.778v73.813l-142.222-35.556v-253.973l16.604 16.604h147.342l28.444 56.889h120.498v85.333zM739.556 256c0 15.709-12.735 28.444-28.444 28.444s-28.444-12.735-28.444-28.444c0-15.709 12.735-28.444 28.444-28.444v0c15.709 0 28.444 12.735 28.444 28.444v0z"></path></g>
</svg>
