<?xml version="1.0" encoding="utf-8"?>
<!-- Generator: Adobe Illustrator 17.0.0, SVG Export Plug-In . SVG Version: 6.00 Build 0)  -->
<!DOCTYPE svg PUBLIC "-//W3C//DTD SVG 1.1//EN" "http://www.w3.org/Graphics/SVG/1.1/DTD/svg11.dtd">
<svg version="1.1" id="Layer_1" xmlns="http://www.w3.org/2000/svg" xmlns:xlink="http://www.w3.org/1999/xlink" x="0px" y="0px"
	 width="1025px" height="1024px" viewBox="0 0 1025 1024" enable-background="new 0 0 1025 1024" xml:space="preserve">
<g><path d="M360 184h-8c4.4 0 8-3.6 8-8v8h304v-8c0 4.4 3.6 8 8 8h-8v72h72v-80c0-35.3-28.7-64-64-64h-320c-35.3 0-64 28.7-64 64v80h72v-72zM864 256h-704c-17.7 0-32 14.3-32 32v32c0 4.4 3.6 8 8 8h60.4l24.7 523c1.6 34.1 29.8 61 63.9 61h454c34.2 0 62.3-26.8 63.9-61l24.7-523h60.4c4.4 0 8-3.6 8-8v-32c0-17.7-14.3-32-32-32zM731.3 840h-438.6l-24.2-512h487l-24.2 512z"></path></g>
</svg>
