<?xml version="1.0" encoding="utf-8"?>
<!-- Generator: Adobe Illustrator 17.0.0, SVG Export Plug-In . SVG Version: 6.00 Build 0)  -->
<!DOCTYPE svg PUBLIC "-//W3C//DTD SVG 1.1//EN" "http://www.w3.org/Graphics/SVG/1.1/DTD/svg11.dtd">
<svg version="1.1" id="Layer_1" xmlns="http://www.w3.org/2000/svg" xmlns:xlink="http://www.w3.org/1999/xlink" x="0px" y="0px"
	 width="1025px" height="1024px" viewBox="0 0 1025 1024" enable-background="new 0 0 1025 1024" xml:space="preserve">
<g><path d="M832 832c0 8.837-7.163 16-16 16s-16-7.163-16-16c0-8.837 7.163-16 16-16s16 7.163 16 16z"></path><path d="M352 400h-113.446c-14.569 0.023-27.479 7.101-35.5 18l-0.086 0.122-91.548 125.878h240.58z"></path><path d="M384 800h324.656c14.236-46.649 56.896-79.998 107.344-79.998s93.108 33.349 107.135 79.204l0.209 0.794h16.656c11.046 0 20-8.954 20-20v0-92h-576z"></path><path d="M816 752c-44.183 0-80 35.817-80 80s35.817 80 80 80c44.183 0 80-35.817 80-80v0c-0.051-44.162-35.838-79.949-79.995-80l-0.005-0zM816 880c-26.51 0-48-21.49-48-48s21.49-48 48-48c26.51 0 48 21.49 48 48v0c-0.031 26.497-21.503 47.969-47.997 48l-0.003 0z"></path><path d="M352 576h-208v72c0 30.928-25.072 56-56 56v0h-24v76c0 11.046 8.954 20 20 20v0h16.656c14.236-46.649 56.896-79.998 107.344-79.998s93.108 33.349 107.135 79.204l0.209 0.794h36.656zM320 640h-64v-32h64z"></path><path d="M224 832c0 8.837-7.163 16-16 16s-16-7.163-16-16c0-8.837 7.163-16 16-16s16 7.163 16 16z"></path><path d="M352 304h-28.734c-6.911 0-13.002 3.506-16.595 8.835l-0.045 0.071-36.73 55.094h82.104z"></path><path d="M208 752c-44.183 0-80 35.817-80 80s35.817 80 80 80c44.183 0 80-35.817 80-80v0c-0.051-44.162-35.838-79.949-79.995-80l-0.005-0zM208 880c-26.51 0-48-21.49-48-48s21.49-48 48-48c26.51 0 48 21.49 48 48v0c-0.031 26.497-21.503 47.969-47.997 48l-0.003 0z"></path><path d="M546.112 361.616l10.050 63.8c11.312 59.52 44.238 109.852 90.134 143.561l0.64 0.449 25.454 18.748 23.764-17.274c47.17-34.166 80.559-84.853 91.734-143.421l0.228-1.437 10.168-64.428-126.084-56.214zM763.332 395.308l-96 96c-2.895 2.895-6.895 4.686-11.313 4.686s-8.418-1.791-11.313-4.686l-48-48 22.626-22.626 36.686 36.686 84.688-84.686z"></path><path d="M64 600v72h24c13.249-0.015 23.985-10.751 24-23.999l0-0.001v-72h-24c-13.249 0.015-23.985 10.751-24 23.999l-0 0.001z"></path><path d="M940 240h-536c-11.046 0-20 8.954-20 20v0 396h576v-396c0-11.046-8.954-20-20-20v0zM448 624h-32v-32h32zM448 304h-32v-32h32zM831.8 354.49l-12.11 76.728c-0.020 0.124-0.040 0.248-0.064 0.372-12.902 68.42-50.917 126.235-103.902 164.676l-0.758 0.524-33.234 24.16c-2.603 1.911-5.871 3.057-9.407 3.057-3.571 0-6.87-1.17-9.532-3.148l0.043 0.030-34.876-25.69c-53.021-38.958-90.51-96.367-103.059-162.6l-0.257-1.632c-0.022-0.126-0.044-0.25-0.062-0.376l-11.988-76.1c-0.124-0.748-0.195-1.61-0.195-2.489 0-6.477 3.849-12.056 9.384-14.573l0.1-0.041 143.8-64.122c1.916-0.876 4.156-1.387 6.516-1.387s4.6 0.511 6.616 1.428l-0.1-0.041 143.8 64.122c5.633 2.559 9.479 8.136 9.479 14.611 0 0.879-0.071 1.741-0.207 2.581l0.012-0.092zM928 624h-32v-32h32zM928 304h-32v-32h32z"></path><path d="M32 272h128v32h-128z"></path><path d="M192 272h32v32h-32z"></path><path d="M176 112h256v32h-256z"></path><path d="M464 112h32v32h-32z"></path><path d="M608 144h256v32h-256z"></path><path d="M896 144h32v32h-32z"></path><path d="M336 880h288v32h-288z"></path><path d="M656 880h32v32h-32z"></path></g>
</svg>
