<?xml version="1.0" encoding="utf-8"?>
<!-- Generator: Adobe Illustrator 17.0.0, SVG Export Plug-In . SVG Version: 6.00 Build 0)  -->
<!DOCTYPE svg PUBLIC "-//W3C//DTD SVG 1.1//EN" "http://www.w3.org/Graphics/SVG/1.1/DTD/svg11.dtd">
<svg version="1.1" id="Layer_1" xmlns="http://www.w3.org/2000/svg" xmlns:xlink="http://www.w3.org/1999/xlink" x="0px" y="0px"
	 width="1025px" height="1024px" viewBox="0 0 1025 1024" enable-background="new 0 0 1025 1024" xml:space="preserve">
<g><path d="M64 360v-248c0-26.6 21.4-48 48-48h248c13.2 0 24 10.8 24 24v48c0 13.2-10.8 24-24 24h-200v200c0 13.2-10.8 24-24 24h-48c-13.2 0-24-10.8-24-24zM640 88v48c0 13.2 10.8 24 24 24h200v200c0 13.2 10.8 24 24 24h48c13.2 0 24-10.8 24-24v-248c0-26.6-21.4-48-48-48h-248c-13.2 0-24 10.8-24 24zM936 640h-48c-13.2 0-24 10.8-24 24v200h-200c-13.2 0-24 10.8-24 24v48c0 13.2 10.8 24 24 24h248c26.6 0 48-21.4 48-48v-248c0-13.2-10.8-24-24-24zM384 936v-48c0-13.2-10.8-24-24-24h-200v-200c0-13.2-10.8-24-24-24h-48c-13.2 0-24 10.8-24 24v248c0 26.6 21.4 48 48 48h248c13.2 0 24-10.8 24-24z"></path></g>
</svg>
