<?xml version="1.0" encoding="utf-8"?>
<!-- Generator: Adobe Illustrator 17.0.0, SVG Export Plug-In . SVG Version: 6.00 Build 0)  -->
<!DOCTYPE svg PUBLIC "-//W3C//DTD SVG 1.1//EN" "http://www.w3.org/Graphics/SVG/1.1/DTD/svg11.dtd">
<svg version="1.1" id="Layer_1" xmlns="http://www.w3.org/2000/svg" xmlns:xlink="http://www.w3.org/1999/xlink" x="0px" y="0px"
	 width="1025px" height="1024px" viewBox="0 0 1025 1024" enable-background="new 0 0 1025 1024" xml:space="preserve">
<g><path d="M942.2 486.2q-52.73-111.090-125.5-181.2l-50.88 50.88c41.49 39.65 77.63 91.52 108.88 156.12-83.2 172.2-201.3 254-362.7 254q-72.67 0-133.87-22.38l-55.13 55.13q85 39.25 189 39.25 288.3 0 430.2-300.3c3.645-7.539 5.776-16.396 5.776-25.75s-2.13-18.211-5.932-26.111l0.157 0.361zM878.63 165.56l-42.63-42.68c-1.448-1.45-3.449-2.346-5.66-2.346s-4.212 0.897-5.66 2.346l-0 0-109.37 109.32q-90.45-46.2-203.31-46.2-288.3 0-430.2 300.3c-3.645 7.539-5.775 16.396-5.775 25.75s2.13 18.211 5.931 26.111l-0.157-0.361q56.69 119.4 136.5 191.41l-105.82 105.79c-1.447 1.448-2.341 3.447-2.341 5.655s0.895 4.207 2.341 5.655l42.69 42.69c1.448 1.447 3.447 2.341 5.655 2.341s4.207-0.895 5.655-2.341l712.15-712.12c1.45-1.448 2.346-3.449 2.346-5.66s-0.897-4.212-2.346-5.66l-0-0zM149.3 512c83.3-172.2 201.4-254 362.7-254 54.54 0 104.13 9.36 149.12 28.39l-70.3 70.3c-23.983-13.048-52.52-20.72-82.85-20.72-97.202 0-176 78.798-176 176 0 30.329 7.672 58.867 21.18 83.778l-0.46-0.928-83.42 83.42c-46.17-40.75-85.97-95.96-119.97-166.24zM396 512c0.063-61.869 50.232-111.999 112.11-111.999 12.179 0 23.904 1.942 34.883 5.533l-0.793-0.224-140.89 140.89c-3.368-10.182-5.31-21.903-5.31-34.077 0-0.043 0-0.086 0-0.129l-0 0.007z"></path><path d="M508 624c-3.46 0-6.87-0.16-10.25-0.47l-52.82 52.82c18.687 7.373 40.333 11.647 62.977 11.647 97.252 0 176.090-78.838 176.090-176.090 0-22.644-4.274-44.289-12.059-64.174l0.413 1.197-52.82 52.82c0.31 3.38 0.47 6.79 0.47 10.25 0 0.018 0 0.039 0 0.060 0 61.823-50.117 111.94-111.94 111.94-0.021 0-0.042-0-0.063-0l0.003 0z"></path></g>
</svg>
