<?xml version="1.0" encoding="utf-8"?>
<!-- Generator: Adobe Illustrator 17.0.0, SVG Export Plug-In . SVG Version: 6.00 Build 0)  -->
<!DOCTYPE svg PUBLIC "-//W3C//DTD SVG 1.1//EN" "http://www.w3.org/Graphics/SVG/1.1/DTD/svg11.dtd">
<svg version="1.1" id="Layer_1" xmlns="http://www.w3.org/2000/svg" xmlns:xlink="http://www.w3.org/1999/xlink" x="0px" y="0px"
	 width="1025px" height="1024px" viewBox="0 0 1025 1024" enable-background="new 0 0 1025 1024" xml:space="preserve">
<g><path d="M991.74 576h-94.54c-0.094-0-0.204-0-0.315-0-142.874 0-270.127 66.881-352.159 171.043l-0.726 0.957v-172c159.058 0 288-128.942 288-288v0-256c-0.035-17.646-14.349-31.938-32-31.938-7.109 0-13.676 2.318-18.988 6.239l0.088-0.062-147.82 107.28-96.7-102c-5.911-7.056-14.725-11.51-24.58-11.51s-18.669 4.455-24.539 11.461l-0.041 0.050-96.7 102-147.82-107.28c-5.224-3.86-11.791-6.178-18.9-6.178-17.651 0-31.965 14.291-32 31.934l-0 0.003v256c0 159.058 128.942 288 288 288v0 172c-82.758-105.119-210.011-172-352.885-172-0.111 0-0.221 0-0.332 0l-94.523-0c-18.38 0-34 18-32.12 39.3 19.98 229 212.72 408.7 447.52 408.7h128.68c234.8 0 427.54-179.7 447.52-408.7 1.84-21.3-13.74-39.3-32.12-39.3zM256 288v-193.18l142.56 103.46 113.44-119.68 113.44 119.68 142.56-103.46v193.18c0 123.712-100.288 224-224 224v0h-64c-123.712 0-224-100.288-224-224v0zM480 960h-32.34c-187.78 0-349.040-138.28-379.88-320h59.020c0.016-0 0.035-0 0.053-0 139.37 0 261.439 74.074 328.985 185.001l0.961 1.699c27.2 45.48 23.2 81.4 23.2 133.3zM576 960h-32c0-52-4-87.8 23.26-133.3 68.507-112.624 190.573-186.697 329.94-186.7l59.020-0c-30.84 181.72-192.12 320-380.22 320z"></path></g>
</svg>
