<?xml version="1.0" encoding="utf-8"?>
<!-- Generator: Adobe Illustrator 17.0.0, SVG Export Plug-In . SVG Version: 6.00 Build 0)  -->
<!DOCTYPE svg PUBLIC "-//W3C//DTD SVG 1.1//EN" "http://www.w3.org/Graphics/SVG/1.1/DTD/svg11.dtd">
<svg version="1.1" id="Layer_1" xmlns="http://www.w3.org/2000/svg" xmlns:xlink="http://www.w3.org/1999/xlink" x="0px" y="0px"
	 width="1025px" height="1024px" viewBox="0 0 1025 1024" enable-background="new 0 0 1025 1024" xml:space="preserve">
<g><path d="M704.4 365l-56.6 56.6 56.6 56.6c6.2 6.2 6.2 16.4 0 22.6l-22.6 22.6c-6.2 6.2-16.4 6.2-22.6 0l-56.6-56.6-45.4 45.2 56.6 56.6c6.2 6.2 6.2 16.4 0 22.6l-22.6 22.6c-6.2 6.2-16.4 6.2-22.6 0l-56.6-56.6-45.2 45.2 56.6 56.6c6.2 6.2 6.2 16.4 0 22.6l-22.6 22.6c-6.2 6.2-16.4 6.2-22.6 0l-56.6-56.6-56.6 56.6c-6.2 6.2-16.4 6.2-22.6 0l-22.6-22.6c-6.2-6.2-6.2-16.4 0-22.6l56.6-56.6-56.8-56.4c-6.2-6.2-6.2-16.4 0-22.6l22.6-22.6c6.2-6.2 16.4-6.2 22.6 0l56.6 56.6 45.2-45.2-56.6-56.6c-6.2-6.2-6.2-16.4 0-22.6l22.6-22.6c6.2-6.2 16.4-6.2 22.6 0l56.6 56.6 45.2-45.2-56.6-56.6c-6.2-6.2-6.2-16.4 0-22.6l22.6-22.6c6.2-6.2 16.4-6.2 22.6 0l56.6 56.6 56.6-56.6c6.2-6.2 16.4-6.2 22.6 0l22.6 22.6c6.6 6 6.6 16 0.4 22.4zM819 819.4c-275.8 276.4-651.6 171.2-699.2 158.4-36.4-9.8-64.8-38.2-74.4-74.6-34.2-129.4-85.8-452.8 159.6-698.6 275.8-276.4 651.6-171.2 699.2-158.4 36.4 9.8 64.8 38.2 74.4 74.6 34.2 129.4 85.8 452.8-159.6 698.6zM887.8 108c-40.6-10.8-101.6-22.8-172.6-26.4l227.8 227.8c-3.2-71.4-15.4-132.2-26-172.2-3.8-14.2-15-25.4-29.2-29.2zM136.2 916c40.6 10.8 101.6 22.8 172.6 26.4l-227.6-227.8c3.2 71.4 15.4 132.2 26 172.2 3.6 14.2 14.8 25.4 29 29.2zM941.6 398.4l-316.4-316.2c-148.4 10.6-274.4 66.6-375 167.4-116.8 117-158.6 254.6-167.8 375.8l316.2 316.2c148.4-10.6 274.4-66.6 375-167.4 117-116.8 158.8-254.4 168-375.8z"></path></g>
</svg>
