<?xml version="1.0" encoding="utf-8"?>
<!-- Generator: Adobe Illustrator 17.0.0, SVG Export Plug-In . SVG Version: 6.00 Build 0)  -->
<!DOCTYPE svg PUBLIC "-//W3C//DTD SVG 1.1//EN" "http://www.w3.org/Graphics/SVG/1.1/DTD/svg11.dtd">
<svg version="1.1" id="Layer_1" xmlns="http://www.w3.org/2000/svg" xmlns:xlink="http://www.w3.org/1999/xlink" x="0px" y="0px"
	 width="1025px" height="1024px" viewBox="0 0 1025 1024" enable-background="new 0 0 1025 1024" xml:space="preserve">
<g><path d="M240 384h224v64h-224z"></path><path d="M240 288h224v64h-224z"></path><path d="M336 232v-24h-40c-13.249 0.015-23.985 10.751-24 23.999l-0 0.001v24h40c13.249-0.015 23.985-10.751 24-23.999l0-0.001z"></path><path d="M144 288h64v64h-64z"></path><path d="M144 384h64v64h-64z"></path><path d="M902.742 227.294c-2.299-11.068-11.959-19.27-23.539-19.294l-0.003-0h-15.2v316c0 20.188-15.282 36-34.79 36h-29.21c-0.001 0-0.003 0-0.004 0-5.039 0-9.533-2.329-12.466-5.969l-0.024-0.031-118.536-148.17-6.684 4.776c-26.52 19.073-43.588 49.845-43.588 84.603 0 20.904 6.173 40.366 16.796 56.663l-0.245-0.4c0.060 0.092 0.118 0.186 0.176 0.278l98.2 159.878c1.487 2.382 2.37 5.273 2.374 8.371l0 0.001v256h176v-240c0-1.188 0.13-2.345 0.376-3.458l-0.020 0.106 47.306-220.76z"></path><path d="M663.292 736.014c-11.932 24.188-30.091 43.75-52.413 57.058l-0.619 0.342-21.276 43.498c11.365 4.633 24.55 7.323 38.364 7.323 30.287 0 57.554-12.926 76.586-33.563l0.065-0.072v-86.078l-19.534-31.8z"></path><path d="M634.544 721.956l17.818-36.426-123.934 34.886-25.682 52.512c11.364 4.641 24.55 7.334 38.366 7.334 40.807 0 76.125-23.499 93.162-57.702l0.272-0.604z"></path><path d="M200 256h40v-24c-0.015-13.249-10.751-23.985-23.999-24l-40.001-0v24c0.015 13.249 10.751 23.985 23.999 24l0.001 0z"></path><path d="M643.686 384.562l19.014-13.582c2.583-1.865 5.813-2.983 9.304-2.983 5.042 0 9.539 2.332 12.472 5.976l0.024 0.031 123.2 154h21.52c2.588 0 2.79-3.062 2.79-4v-456.004c0-11.046-8.954-20-20-20v0h-728.010c-11.046 0-20 8.954-20 20v0 440c0 11.046 8.954 20 20 20v0h506.69c-2.55-9.842-4.013-21.141-4.013-32.782 0-45.462 22.323-85.709 56.605-110.38l0.404-0.276zM784 336h-64v-32h64zM784 256h-128v-32h128zM560 136c0.036-30.913 25.087-55.964 55.997-56l152.003-0c8.837 0 16 7.163 16 16v0 24c-0.036 30.913-25.087 55.964-55.997 56l-152.003 0c-8.837 0-16-7.163-16-16v0zM560 224h64v32h-64zM112 96h112v32h-112zM496 464c0 8.837-7.163 16-16 16v0h-352c-8.837 0-16-7.163-16-16v0-192c0-8.837 7.163-16 16-16v0h21.4c-3.408-6.999-5.4-15.226-5.4-23.919 0-0.029 0-0.057 0-0.086l-0 0.004v-40c0-8.837 7.163-16 16-16v0h56c0.010-0 0.021-0 0.033-0 15.662 0 29.817 6.448 39.956 16.835l0.011 0.011c10.15-10.398 24.306-16.846 39.967-16.846 0.012 0 0.023 0 0.035 0l55.998-0c8.837 0 16 7.163 16 16v0 40c0 0.024 0 0.053 0 0.081 0 8.693-1.992 16.92-5.545 24.25l0.145-0.331h117.4c8.837 0 16 7.163 16 16v0zM496 128h-240v-32h240zM560 304h128v32h-128z"></path><path d="M608.242 568.63q-2.726-4.254-5.102-8.63h-471.066l61.186 217.366c0.489 1.695 2.027 2.914 3.85 2.914 0.387 0 0.761-0.055 1.114-0.157l-0.028 0.007 460.36-129.588z"></path><path d="M752 120v-8h-136c-13.249 0.015-23.985 10.751-24 23.999l-0 0.001v8h136c13.249-0.015 23.985-10.751 24-23.999l0-0.001z"></path></g>
</svg>
