<?xml version="1.0" encoding="utf-8"?>
<!-- Generator: Adobe Illustrator 17.0.0, SVG Export Plug-In . SVG Version: 6.00 Build 0)  -->
<!DOCTYPE svg PUBLIC "-//W3C//DTD SVG 1.1//EN" "http://www.w3.org/Graphics/SVG/1.1/DTD/svg11.dtd">
<svg version="1.1" id="Layer_1" xmlns="http://www.w3.org/2000/svg" xmlns:xlink="http://www.w3.org/1999/xlink" x="0px" y="0px"
	 width="1025px" height="1024px" viewBox="0 0 1025 1024" enable-background="new 0 0 1025 1024" xml:space="preserve">
<g><path d="M916.8 128.6c-115.6-97.2-294.2-82.6-404.8 30-110.6-112.6-289.2-127.4-404.8-30-150.4 126.6-128.4 333-21.2 442.4l350.8 357.4c20 20.4 46.8 31.8 75.2 31.8 28.6 0 55.2-11.2 75.2-31.6l350.8-357.4c107-109.4 129.4-315.8-21.2-442.6zM869.6 503.6l-350.8 357.4c-4.8 4.8-8.8 4.8-13.6 0l-350.8-357.4c-73-74.4-87.8-215.2 14.6-301.4 77.8-65.4 197.8-55.6 273 21l70 71.4 70-71.4c75.6-77 195.6-86.4 273-21.2 102.2 86.2 87 227.8 14.6 301.6z"></path></g>
</svg>
