<?xml version="1.0" encoding="utf-8"?>
<!-- Generator: Adobe Illustrator 17.0.0, SVG Export Plug-In . SVG Version: 6.00 Build 0)  -->
<!DOCTYPE svg PUBLIC "-//W3C//DTD SVG 1.1//EN" "http://www.w3.org/Graphics/SVG/1.1/DTD/svg11.dtd">
<svg version="1.1" id="Layer_1" xmlns="http://www.w3.org/2000/svg" xmlns:xlink="http://www.w3.org/1999/xlink" x="0px" y="0px"
	 width="1025px" height="1024px" viewBox="0 0 1025 1024" enable-background="new 0 0 1025 1024" xml:space="preserve">
<g><path d="M512 64c-282.966 0-512 228.994-512 512v102.858c0.001 11.955 6.555 22.378 16.267 27.873l0.159 0.083 47.608 26.524c-0.010 0.886-0.034 1.772-0.034 2.662 0 123.712 100.288 224 224 224h48c26.51 0 48-21.49 48-48v-352c0-26.51-21.49-48-48-48h-48c-99.35 0-183.58 64.686-212.906 154.236l-11.094-6.182v-84.054c0-247.59 200.368-448 448-448 247.592 0 448 200.368 448 448v84.054l-11.094 6.18c-29.326-89.548-113.554-154.234-212.906-154.234h-48c-26.51 0-48 21.49-48 48v352c0 26.51 21.49 48 48 48h48c123.712 0 224-100.288 224-224 0-0.89-0.024-1.776-0.034-2.664l47.608-26.524c9.871-5.578 16.426-16.001 16.426-27.956l0-0v-102.856c0-282.964-228.994-512-512-512zM288 576h32v320h-32c-88.224 0-160-71.776-160-160s71.776-160 160-160zM736 896h-32v-320h32c88.224 0 160 71.776 160 160s-71.776 160-160 160z"></path></g>
</svg>
