<?xml version="1.0" encoding="utf-8"?>
<!-- Generator: Adobe Illustrator 17.0.0, SVG Export Plug-In . SVG Version: 6.00 Build 0)  -->
<!DOCTYPE svg PUBLIC "-//W3C//DTD SVG 1.1//EN" "http://www.w3.org/Graphics/SVG/1.1/DTD/svg11.dtd">
<svg version="1.1" id="Layer_1" xmlns="http://www.w3.org/2000/svg" xmlns:xlink="http://www.w3.org/1999/xlink" x="0px" y="0px"
	 width="1025px" height="1024px" viewBox="0 0 1025 1024" enable-background="new 0 0 1025 1024" xml:space="preserve">
<g><path d="M979.8 772c-23.6-146.8-94.8-387-308.2-514.8v-1.4c20-15.6 32.4-39.6 32.4-66.2s-12.2-50.4-32.4-66.2c3.2-25.4-5.2-51-24-69.6s-44.4-26.8-69.6-23.8c-31.2-40-100.8-40-132.2 0.2-25.2-2.8-50.8 5.2-69.6 23.8-18.8 18.8-27 44.4-24 69.6-20 15.6-32.4 39.6-32.4 66.2s12.2 50.4 32.4 66.2v1.4c-213.2 127.6-284.4 367.8-308 514.6-25.6 8.4-44.2 31.6-44.2 60v128c0 35.4 28.6 64 64 64h896c35.4 0 64-28.6 64-64v-128c0-28.4-18.6-51.6-44.2-60zM913.6 768h-803.2c5.2-28.8 12-60.2 21.6-94.2l124-62 128 64 128-64 128 64 128-64 124 62c9.6 34 16.6 65.4 21.6 94.2zM399.6 170.2l38-11.2-18.8-34.8c-3.6-6.6-5-17 2.8-24.8 7.8-8 18.4-6.4 25-3l34.8 18.8 11.2-38c2.4-7.8 9.2-15.6 19.6-15.6s17.4 7.8 19.6 15.6l11.2 38 34.8-18.8c6.6-3.6 17-5 25 3 7.8 7.8 6.4 18.2 2.8 24.8l-18.8 34.8 38 11.2c7.8 2.2 15.6 9.2 15.6 19.6s-7.8 17.4-15.6 19.6l-38 11.2 18.8 34.8c3.6 6.6 5 17-2.8 24.8-5.8 5.8-11.2 10.4-25 3l-34.8-19-11.2 38c-2.4 7.8-9.2 15.6-19.6 15.6s-17.4-7.8-19.6-15.6l-11.2-38-34.8 19c-13.8 7.6-19.2 2.8-25-3-7.8-7.8-6.4-18.2-2.8-24.8l18.8-34.8-38-11.2c-7.8-2.2-15.6-9.2-15.6-19.6s7.8-17.4 15.6-19.6zM373 321.4c1.2 1.4 2 3 3.4 4.2 18.4 18.4 44 27.4 70 24.4 15.6 19.8 39.4 31.8 65.8 31.8s50.2-12 65.8-31.8c26 3.2 51.6-6 70-24.4 1.4-1.4 2.2-2.8 3.4-4.2 104.8 67.6 170.2 167.2 210.4 265.6l-93.8-46.8-128 64-128-64-128 64-128-64-93.4 46.8c40.2-98.4 105.4-198 210.4-265.6zM960 960h-896v-128h896v128z"></path></g>
</svg>
