<?xml version="1.0" encoding="utf-8"?>
<!-- Generator: Adobe Illustrator 17.0.0, SVG Export Plug-In . SVG Version: 6.00 Build 0)  -->
<!DOCTYPE svg PUBLIC "-//W3C//DTD SVG 1.1//EN" "http://www.w3.org/Graphics/SVG/1.1/DTD/svg11.dtd">
<svg version="1.1" id="Layer_1" xmlns="http://www.w3.org/2000/svg" xmlns:xlink="http://www.w3.org/1999/xlink" x="0px" y="0px"
	 width="1025px" height="1024px" viewBox="0 0 1025 1024" enable-background="new 0 0 1025 1024" xml:space="preserve">
<g><path d="M928 128c17.646 0 32 14.356 32 32v704c0 17.644-14.354 32-32 32h-832c-17.646 0-32-14.356-32-32v-704c0-17.644 14.354-32 32-32h832zM928 64h-832c-53.020 0-96 42.98-96 96v704c0 53.020 42.98 96 96 96h832c53.020 0 96-42.98 96-96v-704c0-53.020-42.98-96-96-96zM256 256c-35.346 0-64 28.654-64 64s28.654 64 64 64 64-28.654 64-64-28.654-64-64-64zM256 448c-35.346 0-64 28.654-64 64s28.654 64 64 64 64-28.654 64-64-28.654-64-64-64zM256 640c-35.346 0-64 28.654-64 64s28.654 64 64 64 64-28.654 64-64-28.654-64-64-64zM832 344v-48c0-6.627-5.373-12-12-12v0h-424c-6.627 0-12 5.373-12 12v0 48c0 6.627 5.373 12 12 12v0h424c6.627 0 12-5.373 12-12v0zM832 536v-48c0-6.627-5.373-12-12-12v0h-424c-6.627 0-12 5.373-12 12v0 48c0 6.627 5.373 12 12 12v0h424c6.627 0 12-5.373 12-12v0zM832 728v-48c0-6.627-5.373-12-12-12v0h-424c-6.627 0-12 5.373-12 12v0 48c0 6.627 5.373 12 12 12v0h424c6.627 0 12-5.373 12-12v0z"></path></g>
</svg>
