<?xml version="1.0" encoding="utf-8"?>
<!-- Generator: Adobe Illustrator 17.0.0, SVG Export Plug-In . SVG Version: 6.00 Build 0)  -->
<!DOCTYPE svg PUBLIC "-//W3C//DTD SVG 1.1//EN" "http://www.w3.org/Graphics/SVG/1.1/DTD/svg11.dtd">
<svg version="1.1" id="Layer_1" xmlns="http://www.w3.org/2000/svg" xmlns:xlink="http://www.w3.org/1999/xlink" x="0px" y="0px"
	 width="1025px" height="1024px" viewBox="0 0 1025 1024" enable-background="new 0 0 1025 1024" xml:space="preserve">
<g><path fill="rgb(251, 214, 153)" d="M0 402.286l438.857-237.714 438.857 237.714zM0 402.286z"></path><path fill="rgb(240, 205, 146)" d="M0 402.286h877.714v475.429h-877.714zM0 402.286z"></path><path fill="rgb(224, 191, 136)" d="M438.857 640l-438.857-237.714h877.714zM438.857 640z"></path><path fill="rgb(235, 235, 235)" d="M749.714 0h-548.571c-40.393 0-73.143 32.75-73.143 73.143v398.482l310.857 168.375 310.857-168.375zM749.714 0z"></path><path fill="rgb(228, 228, 226)" d="M859.429 109.714h-109.714v-109.714h54.857c30.295 0 54.857 24.563 54.857 54.857zM859.429 109.714z"></path><path fill="rgb(219, 219, 219)" d="M219.429 164.571h438.857v36.571h-438.857zM219.429 164.571z"></path><path fill="rgb(219, 219, 219)" d="M219.429 274.286h438.857v36.571h-438.857zM219.429 274.286z"></path><path fill="rgb(219, 219, 219)" d="M219.429 384h438.857v36.571h-438.857zM219.429 384z"></path><path fill="rgb(219, 219, 219)" d="M347.429 493.714h182.857v36.571h-182.857zM347.429 493.714z"></path><path fill="rgb(224, 191, 136)" d="M0 877.714l438.857-237.714 438.857 237.714zM0 877.714z"></path><path fill="rgb(251, 237, 191)" d="M1024 877.714c0 80.795-65.491 146.286-146.286 146.286s-146.286-65.491-146.286-146.286 65.491-146.286 146.286-146.286 146.286 65.491 146.286 146.286zM1024 877.714z"></path><path fill="rgb(234, 157, 45)" d="M877.714 969.143c-10.098 0-18.286-8.187-18.286-18.286v-36.571c0-10.098 8.187-18.286 18.286-18.286s18.286 8.187 18.286 18.286v36.571c0 10.098-8.187 18.286-18.286 18.286zM877.714 969.143z"></path><path fill="rgb(247, 186, 97)" d="M950.857 932.571h-146.286l12.509-37.5c3.821-11.5 5.777-23.527 5.777-35.643 0-30.295 24.563-54.857 54.857-54.857s54.857 24.563 54.857 54.857c0 12.116 1.955 24.143 5.777 35.643zM950.857 932.571z"></path></g>
</svg>
