<?xml version="1.0" encoding="utf-8"?>
<!-- Generator: Adobe Illustrator 17.0.0, SVG Export Plug-In . SVG Version: 6.00 Build 0)  -->
<!DOCTYPE svg PUBLIC "-//W3C//DTD SVG 1.1//EN" "http://www.w3.org/Graphics/SVG/1.1/DTD/svg11.dtd">
<svg version="1.1" id="Layer_1" xmlns="http://www.w3.org/2000/svg" xmlns:xlink="http://www.w3.org/1999/xlink" x="0px" y="0px"
	 width="1025px" height="1024px" viewBox="0 0 1025 1024" enable-background="new 0 0 1025 1024" xml:space="preserve">
<g><path d="M512 64c-247.4 0-448 200.6-448 448s200.6 448 448 448 448-200.6 448-448-200.6-448-448-448zM656.1 518.9l-218.4 158.9c-1.298 0.942-2.923 1.507-4.68 1.507-4.425 0-8.013-3.583-8.020-8.006l-0-0.001v-317.6c-0-0.008-0-0.017-0-0.026 0-4.418 3.582-8 8-8 1.766 0 3.399 0.572 4.723 1.542l-0.022-0.016 218.4 158.8c2.030 1.449 3.338 3.797 3.338 6.45s-1.308 5.001-3.314 6.434l-0.024 0.016z"></path></g>
</svg>
