<svg width="1025" height="1024" xmlns="http://www.w3.org/2000/svg" version="1.1" enable-background="new 0 0 1025 1024" xml:space="preserve">
 <g>
  <title>Layer 1</title>
  <g id="svg_1">
   <path d="m880.5,464l-320,0l0,-320c0,-8.84 -7.16,-16 -16,-16l-64,0c-8.84,0 -16,7.16 -16,16l0,320l-320,0c-8.84,0 -16,7.16 -16,16l0,64c0,8.84 7.16,16 16,16l320,0l0,320c0,8.84 7.16,16 16,16l64,0c8.84,0 16,-7.16 16,-16l0,-320l320,0c8.84,0 16,-7.16 16,-16l0,-64c0,-8.84 -7.16,-16 -16,-16z" id="svg_2"/>
  </g>
 </g>

</svg>