<?xml version="1.0" encoding="utf-8"?>
<!-- Generator: Adobe Illustrator 17.0.0, SVG Export Plug-In . SVG Version: 6.00 Build 0)  -->
<!DOCTYPE svg PUBLIC "-//W3C//DTD SVG 1.1//EN" "http://www.w3.org/Graphics/SVG/1.1/DTD/svg11.dtd">
<svg version="1.1" id="Layer_1" xmlns="http://www.w3.org/2000/svg" xmlns:xlink="http://www.w3.org/1999/xlink" x="0px" y="0px"
	 width="1025px" height="1024px" viewBox="0 0 1025 1024" enable-background="new 0 0 1025 1024" xml:space="preserve">
<g><path d="M864 64h-704c-53 0-96 43-96 96v704c0 53 43 96 96 96h704c53 0 96-43 96-96v-704c0-53-43-96-96-96zM864 864h-704v-704h704v704zM304 768h32c17.68 0 32-14.32 32-32v-256c0-17.68-14.32-32-32-32h-32c-17.68 0-32 14.32-32 32v256c0 17.68 14.32 32 32 32zM496 768h32c17.68 0 32-14.32 32-32v-448c0-17.68-14.32-32-32-32h-32c-17.68 0-32 14.32-32 32v448c0 17.68 14.32 32 32 32zM688 768h32c17.68 0 32-14.32 32-32v-128c0-17.68-14.32-32-32-32h-32c-17.68 0-32 14.32-32 32v128c0 17.68 14.32 32 32 32z"></path></g>
</svg>
