<?xml version="1.0" encoding="utf-8"?>
<!-- Generator: Adobe Illustrator 17.0.0, SVG Export Plug-In . SVG Version: 6.00 Build 0)  -->
<!DOCTYPE svg PUBLIC "-//W3C//DTD SVG 1.1//EN" "http://www.w3.org/Graphics/SVG/1.1/DTD/svg11.dtd">
<svg version="1.1" id="Layer_1" xmlns="http://www.w3.org/2000/svg" xmlns:xlink="http://www.w3.org/1999/xlink" x="0px" y="0px"
	 width="1025px" height="1024px" viewBox="0 0 1025 1024" enable-background="new 0 0 1025 1024" xml:space="preserve">
<g><path d="M928 160h-832c-17.7 0-32 14.3-32 32v640c0 17.7 14.3 32 32 32h832c17.7 0 32-14.3 32-32v-640c0-17.7-14.3-32-32-32zM338 304c35.3 0 64 28.7 64 64s-28.7 64-64 64-64-28.7-64-64 28.7-64 64-64zM851.9 741.1c-1.396 1.178-3.214 1.896-5.199 1.9l-0.001 0h-669.5c-4.4 0-8-3.6-8-8 0-1.9 0.7-3.7 1.9-5.2l170.3-202c2.8-3.4 7.9-3.8 11.3-1 0.3 0.3 0.7 0.6 1 1l99.4 118 158.1-187.5c2.8-3.4 7.9-3.8 11.3-1 0.3 0.3 0.7 0.6 1 1l229.6 271.6c2.6 3.3 2.2 8.4-1.2 11.2z"></path></g>
</svg>
