<?xml version="1.0" encoding="utf-8"?>
<!-- Generator: Adobe Illustrator 17.0.0, SVG Export Plug-In . SVG Version: 6.00 Build 0)  -->
<!DOCTYPE svg PUBLIC "-//W3C//DTD SVG 1.1//EN" "http://www.w3.org/Graphics/SVG/1.1/DTD/svg11.dtd">
<svg version="1.1" id="Layer_1" xmlns="http://www.w3.org/2000/svg" xmlns:xlink="http://www.w3.org/1999/xlink" x="0px" y="0px"
	 width="1025px" height="1024px" viewBox="0 0 1025 1024" enable-background="new 0 0 1025 1024" xml:space="preserve">
<g><path d="M878.3 392.1l-246.4-246.4c-6.5-6.5-15-9.7-23.5-9.7s-17 3.2-23.5 9.7l-161.1 161.2c-12.2-1.4-24.5-2-36.8-2-73.2 0-146.4 24.1-206.5 72.3-15.4 12.3-16.6 35.4-2.7 49.4l181.7 181.7-215.4 215.2c-2.555 2.539-4.246 5.944-4.595 9.738l-0.005 0.062-3.4 37.2c-0.9 9.4 6.6 17.4 15.9 17.4 0.5 0 1 0 1.5-0.1l37.2-3.4c3.7-0.3 7.2-2 9.8-4.6l215.4-215.4 181.7 181.7c6.5 6.5 15 9.7 23.5 9.7 9.7 0 19.3-4.2 25.9-12.4 56.3-70.3 79.7-158.3 70.2-243.4l161.1-161.1c12.9-12.8 12.9-33.8 0-46.8z"></path></g>
</svg>
