<?xml version="1.0" encoding="utf-8"?>
<!-- Generator: Adobe Illustrator 17.0.0, SVG Export Plug-In . SVG Version: 6.00 Build 0)  -->
<!DOCTYPE svg PUBLIC "-//W3C//DTD SVG 1.1//EN" "http://www.w3.org/Graphics/SVG/1.1/DTD/svg11.dtd">
<svg version="1.1" id="Layer_1" xmlns="http://www.w3.org/2000/svg" xmlns:xlink="http://www.w3.org/1999/xlink" x="0px" y="0px"
	 width="1025px" height="1024px" viewBox="0 0 1025 1024" enable-background="new 0 0 1025 1024" xml:space="preserve">
<g><path d="M584 896h-144c-13.2 0-24-10.8-24-24v-16c0-13.2 10.8-24 24-24h144c13.2 0 24 10.8 24 24v16c0 13.2-10.8 24-24 24zM832 96v832c0 53-43 96-96 96h-448c-53 0-96-43-96-96v-832c0-53 43-96 96-96h448c53 0 96 43 96 96zM768 96c0-17.6-14.4-32-32-32h-448c-17.6 0-32 14.4-32 32v832c0 17.6 14.4 32 32 32h448c17.6 0 32-14.4 32-32v-832z"></path></g>
</svg>
