<?xml version="1.0" encoding="utf-8"?>
<!-- Generator: Adobe Illustrator 17.0.0, SVG Export Plug-In . SVG Version: 6.00 Build 0)  -->
<!DOCTYPE svg PUBLIC "-//W3C//DTD SVG 1.1//EN" "http://www.w3.org/Graphics/SVG/1.1/DTD/svg11.dtd">
<svg version="1.1" id="Layer_1" xmlns="http://www.w3.org/2000/svg" xmlns:xlink="http://www.w3.org/1999/xlink" x="0px" y="0px"
	 width="1025px" height="1024px" viewBox="0 0 1025 1024" enable-background="new 0 0 1025 1024" xml:space="preserve">
<g><path d="M972.8 512h-17.067v-358.4c-0.055-47.104-38.229-85.278-85.333-85.333h-716.8c-47.104 0.055-85.278 38.229-85.333 85.333v256h-17.067c-28.277 0-51.2 22.923-51.2 51.2v443.733c0 28.277 22.923 51.2 51.2 51.2h648.533c9.425 0 17.067-7.642 17.067-17.067-0.055-47.104-38.229-85.278-85.333-85.333h-51.2v-102.4h204.8v153.6c0 28.277 22.923 51.2 51.2 51.2h136.533c28.277 0 51.2-22.923 51.2-51.2v-341.333c0-28.277-22.923-51.2-51.2-51.2zM375.467 904.533c0 9.425-7.642 17.067-17.067 17.067h-307.2c-9.425 0-17.067-7.642-17.067-17.067v-17.067h341.333v17.067zM375.467 853.333h-341.333v-392.533c0-9.425 7.642-17.067 17.067-17.067h307.2c9.425 0 17.067 7.642 17.067 17.067v392.533zM631.467 887.467c21.692 0.026 41.022 13.692 48.282 34.133h-273.289c2.022-5.466 3.083-11.238 3.14-17.067v-17.067h221.867zM409.6 853.333v-102.4h34.133v102.4h-34.133zM477.867 853.333v-102.4h68.267v102.4h-68.267zM785.067 716.8h-375.467v-102.4h375.467v102.4zM785.067 563.2v17.067h-375.467v-119.467c-0.058-8.098-2.061-16.064-5.837-23.228 0.256-0.239 0.597-0.307 0.836-0.563l168.96-168.96c6.549-6.78 6.362-17.585-0.418-24.132-6.613-6.387-17.099-6.387-23.714 0l-168.96 168.96c-0.41 0.427-0.58 0.973-0.939 1.417-6.622-3.072-13.83-4.672-21.129-4.693h-256v-256c0-28.277 22.923-51.2 51.2-51.2h716.8c28.277 0 51.2 22.923 51.2 51.2v358.4h-85.333c-28.277 0-51.2 22.923-51.2 51.2zM989.867 904.533c0 9.425-7.642 17.067-17.067 17.067h-136.533c-9.425 0-17.067-7.642-17.067-17.067v-17.067h170.667v17.067zM989.867 853.333h-170.667v-290.133c0-9.425 7.642-17.067 17.067-17.067h136.533c9.425 0 17.067 7.642 17.067 17.067v290.133z"></path><path d="M203.93 617.335c-6.665-6.662-17.468-6.662-24.132 0l-72.397 72.397c-6.78 6.549-6.967 17.353-0.418 24.132s17.353 6.967 24.132 0.418c0.143-0.137 0.282-0.277 0.418-0.418l72.397-72.397c3.046-5.28-3.076-15.317 0-24.132z"></path><path d="M305.911 617.335c-6.613-6.387-17.099-6.387-23.714 0l-72.397 72.397c-6.78 6.547-6.967 17.353-0.418 24.132 6.547 6.78 17.353 6.967 24.132 0.418 0.143-0.137 0.282-0.277 0.418-0.418l72.397-72.397c6.547-6.78 6.362-17.585-0.418-24.132z"></path><path d="M677.248 243.934c-6.613-6.387-17.099-6.387-23.714 0l-168.96 168.96c-6.78 6.547-6.967 17.353-0.42 24.132s17.353 6.967 24.132 0.42c0.143-0.137 0.282-0.277 0.42-0.42l168.96-168.96c6.549-6.78 6.362-17.585-0.418-24.132z"></path><path d="M940.314 663.535c-6.613-6.389-17.101-6.389-23.714 0l-48.265 48.265c-6.78 6.549-6.967 17.353-0.418 24.132s17.353 6.967 24.132 0.418c0.141-0.137 0.282-0.277 0.418-0.418l48.265-48.265c6.549-6.78 6.362-17.583-0.418-24.132z"></path><path d="M512.341 648.533h-0.171c-9.425 0.047-17.028 7.727-16.981 17.152s7.727 17.028 17.152 16.981c9.425 0 17.067-7.642 17.067-17.067s-7.642-17.067-17.067-17.067z"></path><path d="M546.133 136.533h-68.267c-9.425 0-17.067 7.642-17.067 17.067s7.642 17.067 17.067 17.067h68.267c9.425 0 17.067-7.642 17.067-17.067s-7.642-17.067-17.067-17.067z"></path></g>
</svg>
