<?xml version="1.0" encoding="utf-8"?>
<!-- Generator: Adobe Illustrator 17.0.0, SVG Export Plug-In . SVG Version: 6.00 Build 0)  -->
<!DOCTYPE svg PUBLIC "-//W3C//DTD SVG 1.1//EN" "http://www.w3.org/Graphics/SVG/1.1/DTD/svg11.dtd">
<svg version="1.1" id="Layer_1" xmlns="http://www.w3.org/2000/svg" xmlns:xlink="http://www.w3.org/1999/xlink" x="0px" y="0px"
	 width="1025px" height="1024px" viewBox="0 0 1025 1024" enable-background="new 0 0 1025 1024" xml:space="preserve">
<g><path d="M819.088 85.71c0 8.926-7.236 16.162-16.162 16.162s-16.162-7.236-16.162-16.162c0-8.926 7.236-16.162 16.162-16.162s16.162 7.236 16.162 16.162z"></path><path d="M754.438 85.71c0 8.926-7.236 16.162-16.162 16.162s-16.162-7.236-16.162-16.162c0-8.926 7.236-16.162 16.162-16.162s16.162 7.236 16.162 16.162z"></path><path d="M689.788 85.71c0 8.926-7.236 16.162-16.162 16.162s-16.162-7.236-16.162-16.162c0-8.926 7.236-16.162 16.162-16.162s16.162 7.236 16.162 16.162z"></path><path d="M1009 472.678c-8.284 0-15 6.714-15 15v472.84c0 14.006-11.394 25.4-25.4 25.4h-404.080c-14.004 0-25.4-11.394-25.4-25.4v-222.278c0-8.286-6.716-15-15-15s-15 6.714-15 15v25.44h-453.72c-14.006 0-25.4-11.394-25.4-25.4v-427.66c0-8.286-6.716-15-15-15s-15 6.714-15 15v427.66c0 30.546 24.852 55.4 55.4 55.4h453.72v166.84c0 30.546 24.852 55.4 55.4 55.4h404.080c30.548 0 55.4-24.854 55.4-55.4v-472.84c0-8.286-6.716-15.002-15-15.002z"></path><path d="M1024 253.398c0-30.55-24.856-55.406-55.406-55.406h-69.854v-134.504c0-30.55-24.856-55.406-55.408-55.406h-787.926c-30.55 0-55.406 24.854-55.406 55.406v177.13c0 8.286 6.716 15 15 15s15-6.714 15-15v-77.278h838.74v34.65h-304.212c-30.55 0-55.406 24.856-55.406 55.406l-0.002 414.844c0 8.286 6.716 15 15 15s15-6.714 15-15v-314.98h454.88v64.42c0 8.286 6.716 15 15 15s15-6.714 15-15zM55.406 38.082h787.926c14.010 0 25.408 11.396 25.408 25.406v69.852h-838.74v-69.852c0-14.010 11.398-25.406 25.406-25.406zM539.122 253.398c0-14.010 11.398-25.406 25.406-25.406h404.066c14.008 0 25.406 11.396 25.406 25.406v69.854h-454.878z"></path><path d="M944.35 275.622c0 8.926-7.236 16.162-16.162 16.162s-16.162-7.236-16.162-16.162c0-8.926 7.236-16.162 16.162-16.162s16.162 7.236 16.162 16.162z"></path><path d="M879.698 275.622c0 8.926-7.236 16.162-16.162 16.162s-16.162-7.236-16.162-16.162c0-8.926 7.236-16.162 16.162-16.162s16.162 7.236 16.162 16.162z"></path><path d="M815.048 275.622c0 8.926-7.236 16.162-16.162 16.162s-16.162-7.236-16.162-16.162c0-8.926 7.236-16.162 16.162-16.162s16.162 7.236 16.162 16.162z"></path><path d="M79.65 470.43h379.822c8.284 0 15-6.714 15-15v-242.44c0-8.286-6.716-15-15-15h-379.822c-8.284 0-15 6.714-15 15v242.44c0 8.286 6.716 15 15 15zM444.472 428.060l-147.030-93.85 147.030-93.85zM408.092 440.43h-277.062l138.53-88.424zM269.562 316.416l-138.53-88.424h277.062zM241.682 334.21l-147.032 93.85v-187.7z"></path><path d="M64.65 584.732c0 8.286 6.716 15 15 15h379.822c8.284 0 15-6.714 15-15v-64.65c0-8.286-6.716-15-15-15h-379.822c-8.284 0-15 6.714-15 15zM94.65 535.082h349.822v34.65h-349.822z"></path><path d="M79.65 729.032h181.83c8.284 0 15-6.714 15-15s-6.716-15-15-15h-181.83c-8.284 0-15 6.714-15 15s6.716 15 15 15z"></path><path d="M79.65 664.382h262.642c8.284 0 15-6.714 15-15s-6.716-15-15-15h-262.642c-8.284 0-15 6.714-15 15s6.716 15 15 15z"></path><path d="M588.772 660.34h355.578c8.284 0 15-6.714 15-15v-242.44c0-8.286-6.716-15-15-15h-355.578c-8.284 0-15 6.714-15 15v242.44c0 8.286 6.716 15 15 15zM929.35 616.96l-136.162-92.838 136.162-92.838zM895.724 630.34h-258.326l129.162-88.066zM766.562 505.968l-129.162-88.066h258.326zM739.936 524.122l-136.162 92.838v-185.676z"></path><path d="M573.772 774.642c0 8.286 6.716 15 15 15h355.578c8.284 0 15-6.714 15-15v-64.65c0-8.286-6.716-15-15-15h-355.578c-8.284 0-15 6.714-15 15zM603.772 724.992h325.578v34.65h-325.578z"></path><path d="M588.772 918.942h141.422c8.284 0 15-6.714 15-15s-6.716-15-15-15h-141.422c-8.284 0-15 6.714-15 15s6.716 15 15 15z"></path><path d="M588.772 854.292h222.236c8.284 0 15-6.714 15-15s-6.716-15-15-15h-222.236c-8.284 0-15 6.714-15 15s6.716 15 15 15z"></path></g>
</svg>
