<?xml version="1.0" encoding="utf-8"?>
<!-- Generator: Adobe Illustrator 17.0.0, SVG Export Plug-In . SVG Version: 6.00 Build 0)  -->
<!DOCTYPE svg PUBLIC "-//W3C//DTD SVG 1.1//EN" "http://www.w3.org/Graphics/SVG/1.1/DTD/svg11.dtd">
<svg version="1.1" id="Layer_1" xmlns="http://www.w3.org/2000/svg" xmlns:xlink="http://www.w3.org/1999/xlink" x="0px" y="0px"
	 width="1025px" height="1024px" viewBox="0 0 1025 1024" enable-background="new 0 0 1025 1024" xml:space="preserve">
<g><path d="M981.317 170.667h-751.486l-14.807-78.974c-3.785-20.18-21.404-34.804-41.936-34.804h-151.755c-11.781 0-21.333 9.552-21.333 21.333v14.222c0 11.781 9.552 21.333 21.333 21.333h139.947l124.315 663.015c-18.386 20.21-29.595 47.065-29.595 76.54 0 62.837 50.94 113.778 113.778 113.778s113.778-50.94 113.778-113.778c0-0.037 0-0.081 0-0.126 0-20.906-5.667-40.488-15.547-57.294l0.289 0.531h258.075c-9.592 16.275-15.259 35.858-15.259 56.763 0 0.044 0 0.088 0 0.132l-0-0.007c0 62.837 50.94 113.778 113.778 113.778s113.778-50.94 113.778-113.778c0-31.988-13.218-60.871-34.468-81.543-4.606-18.206-21.072-32.235-41.396-32.235h-526.308l-21.333-113.778h589.122c20.21 0 37.648-14.18 41.771-33.964l77.033-369.778c5.518-26.496-14.708-51.369-41.772-51.369zM426.666 853.333c0 31.369-25.52 56.889-56.889 56.889s-56.889-25.52-56.889-56.889 25.52-56.889 56.889-56.889 56.889 25.52 56.889 56.889zM824.888 910.222c-31.369 0-56.889-25.52-56.889-56.889s25.52-56.889 56.889-56.889 56.889 25.52 56.889 56.889-25.52 56.889-56.889 56.889zM892.721 568.889h-588.224l-64-341.333h723.335l-71.111 341.333z"></path></g>
</svg>
