<?xml version="1.0" encoding="utf-8"?>
<!-- Generator: Adobe Illustrator 17.0.0, SVG Export Plug-In . SVG Version: 6.00 Build 0)  -->
<!DOCTYPE svg PUBLIC "-//W3C//DTD SVG 1.1//EN" "http://www.w3.org/Graphics/SVG/1.1/DTD/svg11.dtd">
<svg version="1.1" id="Layer_1" xmlns="http://www.w3.org/2000/svg" xmlns:xlink="http://www.w3.org/1999/xlink" x="0px" y="0px"
	 width="1025px" height="1024px" viewBox="0 0 1025 1024" enable-background="new 0 0 1025 1024" xml:space="preserve">
<g><path d="M247.612 210h469.1c42.292 0 76.698 34.542 76.698 77v205.112c0 8.286 6.716 15 15 15s15-6.714 15-15v-205.112c0-59-47.864-107-106.698-107h-469.1c-8.284 0-15 6.714-15 15s6.716 15 15 15z"></path><path d="M612.716 673.112h-282.862c-4.402 0-8.582 1.934-11.432 5.29l-84.994 100.042-84.992-100.044c-2.85-3.356-7.030-5.29-11.432-5.29h-30.306c-42.292 0-76.698-34.542-76.698-77v-309.11c0-42.458 34.406-77 76.698-77h71.358c8.284 0 15-6.714 15-15s-6.716-15-15-15h-71.358c-58.834 0-106.698 48-106.698 107v309.112c0 59 47.864 107 106.698 107h23.368l91.932 108.21c2.85 3.356 7.030 5.29 11.432 5.29s8.582-1.934 11.432-5.29l91.932-108.21h275.922c8.284 0 15-6.714 15-15s-6.716-15-15-15z"></path><path d="M442.656 894.658h-136.368c-8.284 0-15 6.714-15 15s6.716 15 15 15h136.368c19.056 0 34.56 15.552 34.56 34.67s-15.504 34.672-34.56 34.672h-378.096c-19.056 0-34.56-15.554-34.56-34.672s15.504-34.67 34.56-34.67h13.27c4.812 0 9.332-2.308 12.152-6.206l26.066-36.018 26.066 36.018c2.82 3.896 7.34 6.206 12.152 6.206h82.664c8.284 0 15-6.714 15-15s-6.716-15-15-15h-75.004l-33.726-46.604c-2.82-3.896-7.34-6.206-12.152-6.206s-9.332 2.308-12.152 6.206l-33.726 46.604h-5.61c-35.598 0-64.56 29.012-64.56 64.67 0 35.66 28.962 64.672 64.56 64.672h378.096c35.598 0 64.56-29.012 64.56-64.672 0-35.658-28.962-64.67-64.56-64.67z"></path><path d="M581.318 129.342h56.426c8.284 0 15-6.714 15-15s-6.716-15-15-15h-56.426c-19.056 0-34.56-15.552-34.56-34.67s15.504-34.672 34.56-34.672h378.096c19.056 0 34.56 15.552 34.56 34.67s-15.504 34.672-34.56 34.672h-13.27c-4.812 0-9.332 2.308-12.152 6.206l-26.066 36.018-26.066-36.020c-2.82-3.896-7.34-6.206-12.152-6.206h-162.604c-8.284 0-15 6.714-15 15s6.716 15 15 15h154.944l33.726 46.604c2.82 3.896 7.34 6.206 12.152 6.206s9.332-2.308 12.152-6.206l33.726-46.604h5.61c35.598 0 64.56-29.012 64.56-64.672 0-35.656-28.962-64.668-64.56-64.668h-378.096c-35.598 0-64.56 29.012-64.56 64.672 0 35.658 28.962 64.67 64.56 64.67z"></path><path d="M219.71 507.872c-8.284 0-15 6.714-15 15s6.716 15 15 15h79.998c8.284 0 15-6.714 15-15v-80c0-8.286-6.716-15-15-15h-64.998v-50h64.998c8.284 0 15-6.714 15-15s-6.716-15-15-15h-79.998c-8.284 0-15 6.714-15 15v80c0 8.286 6.716 15 15 15h64.998v50z"></path><path d="M449.704 377.872c8.284 0 15-6.714 15-15s-6.716-15-15-15h-79.998c-8.284 0-15 6.714-15 15v160c0 8.286 6.716 15 15 15h79.998c8.284 0 15-6.714 15-15s-6.716-15-15-15h-64.998v-50h64.998c8.284 0 15-6.714 15-15s-6.716-15-15-15h-64.998v-50z"></path><path d="M519.704 347.872c-8.284 0-15 6.714-15 15v160c0 8.286 6.716 15 15 15h79.998c8.284 0 15-6.714 15-15v-160c0-8.286-6.716-15-15-15zM584.702 507.872h-49.998v-130h49.998z"></path><path d="M1023.974 690.484c-0.002-7.376-5.366-13.654-12.65-14.808l-20.696-3.284-9.878-23.838 12.308-16.978c4.328-5.97 3.674-14.2-1.54-19.412l-42.364-42.36c-5.22-5.218-13.458-5.868-19.426-1.526l-16.942 12.316-23.828-9.868-3.294-20.704c-1.158-7.284-7.44-12.642-14.814-12.642l-59.896 0.024c-7.376 0.002-13.658 5.37-14.81 12.656l-3.278 20.714-23.806 9.878-16.958-12.308c-5.974-4.336-14.212-3.684-19.424 1.54l-42.334 42.39c-5.21 5.216-5.856 13.448-1.524 19.412l12.314 16.96-9.866 23.858-20.682 3.296c-7.284 1.16-12.642 7.444-12.64 14.818l0.024 59.93c0.002 7.376 5.368 13.654 12.652 14.808l20.694 3.282 9.878 23.838-12.308 16.978c-4.328 5.97-3.674 14.2 1.538 19.412l42.362 42.362c5.216 5.214 13.454 5.868 19.426 1.526l16.942-12.316 23.826 9.868 3.294 20.704c1.16 7.284 7.44 12.642 14.814 12.642l59.896-0.026c7.376-0.004 13.656-5.37 14.808-12.654l3.28-20.716 23.808-9.878 16.958 12.31c5.972 4.336 14.21 3.682 19.424-1.54l42.334-42.39c5.21-5.216 5.856-13.446 1.526-19.412l-12.314-16.962 9.866-23.858 20.682-3.294c7.284-1.16 12.644-7.444 12.64-14.818zM977.666 740.222c-5.152 0.82-9.508 4.26-11.502 9.080l-16.282 39.372c-1.992 4.818-1.34 10.326 1.722 14.544l9.726 13.396-24.236 24.27-13.388-9.718c-4.226-3.066-9.74-3.716-14.56-1.716l-39.322 16.316c-4.818 2-8.25 6.358-9.066 11.51l-2.59 16.36-34.276 0.014-2.602-16.346c-0.82-5.15-4.256-9.506-9.076-11.502l-39.344-16.292c-1.848-0.766-3.796-1.14-5.738-1.14-3.122 0-6.216 0.974-8.822 2.868l-13.372 9.72-24.25-24.25 9.722-13.412c3.060-4.222 3.708-9.73 1.712-14.546l-16.302-39.35c-1.998-4.82-6.356-8.256-11.508-9.072l-16.342-2.592-0.014-34.32 16.33-2.604c5.152-0.82 9.508-4.26 11.5-9.080l16.282-39.372c1.994-4.818 1.34-10.326-1.724-14.544l-9.726-13.396 24.236-24.268 13.388 9.716c4.226 3.070 9.742 3.716 14.56 1.716l39.322-16.316c4.818-2 8.25-6.36 9.066-11.512l2.588-16.358 34.276-0.012 2.6 16.346c0.82 5.15 4.256 9.506 9.076 11.502l39.346 16.292c4.824 1.996 10.336 1.342 14.558-1.726l13.372-9.72 24.252 24.25-9.722 13.41c-3.060 4.222-3.708 9.73-1.712 14.546l16.306 39.348c1.998 4.82 6.356 8.256 11.508 9.072l16.344 2.592 0.014 34.322z"></path><path d="M904.658 705.518c-8.284 0-15 6.714-15 15 0 26.846-21.84 48.686-48.684 48.686s-48.684-21.84-48.684-48.686 21.84-48.686 48.684-48.686c7.030 0 13.808 1.462 20.142 4.346 7.542 3.436 16.436 0.102 19.868-7.438 3.432-7.542 0.102-16.436-7.438-19.868-10.264-4.672-21.222-7.042-32.572-7.042-43.386 0-78.684 35.298-78.684 78.686s35.298 78.686 78.684 78.686 78.684-35.298 78.684-78.686c0-8.284-6.716-14.998-15-14.998z"></path></g>
</svg>
