<?xml version="1.0" encoding="utf-8"?>
<!-- Generator: Adobe Illustrator 17.0.0, SVG Export Plug-In . SVG Version: 6.00 Build 0)  -->
<!DOCTYPE svg PUBLIC "-//W3C//DTD SVG 1.1//EN" "http://www.w3.org/Graphics/SVG/1.1/DTD/svg11.dtd">
<svg version="1.1" id="Layer_1" xmlns="http://www.w3.org/2000/svg" xmlns:xlink="http://www.w3.org/1999/xlink" x="0px" y="0px"
	 width="1025px" height="1024px" viewBox="0 0 1025 1024" enable-background="new 0 0 1025 1024" xml:space="preserve">
<g><path d="M981.317 170.667h-724.82l-15.513-79.303c-3.918-20.025-21.468-34.475-41.874-34.475h-177.778c-11.781 0-21.333 9.552-21.333 21.333v42.667c0 11.781 9.552 21.333 21.333 21.333h142.649l123.723 632.357c-19.623 20.444-31.705 48.18-31.705 78.754 0 62.837 50.94 113.778 113.778 113.778s113.778-50.94 113.778-113.778c0-0.037 0-0.081 0-0.126 0-20.906-5.667-40.488-15.547-57.294l0.289 0.531h258.075c-9.592 16.275-15.259 35.858-15.259 56.763 0 0.044 0 0.088 0 0.132l-0-0.007c0 62.837 50.94 113.778 113.778 113.778s113.778-50.94 113.778-113.778c0-32.242-13.433-61.326-34.98-82.030l1.84-8.457c5.785-26.596-14.475-51.735-41.692-51.735h-501.596l-16.693-85.333h555.387c20.071 0 37.429-13.989 41.692-33.604l80.384-369.778c5.781-26.594-14.478-51.73-41.692-51.73zM369.778 896c-23.527 0-42.667-19.14-42.667-42.667s19.14-42.667 42.667-42.667 42.667 19.14 42.667 42.667-19.14 42.667-42.667 42.667zM824.889 896c-23.527 0-42.667-19.14-42.667-42.667s19.14-42.667 42.667-42.667 42.667 19.14 42.667 42.667-19.14 42.667-42.667 42.667zM866.556 540.444h-537.703l-55.662-284.444h655.196l-61.831 284.444z"></path></g>
</svg>
