<?xml version="1.0" encoding="utf-8"?>
<!-- Generator: Adobe Illustrator 17.0.0, SVG Export Plug-In . SVG Version: 6.00 Build 0)  -->
<!DOCTYPE svg PUBLIC "-//W3C//DTD SVG 1.1//EN" "http://www.w3.org/Graphics/SVG/1.1/DTD/svg11.dtd">
<svg version="1.1" id="Layer_1" xmlns="http://www.w3.org/2000/svg" xmlns:xlink="http://www.w3.org/1999/xlink" x="0px" y="0px"
	 width="1025px" height="1024px" viewBox="0 0 1025 1024" enable-background="new 0 0 1025 1024" xml:space="preserve">
<g><path d="M512 384c70.692 0 128-57.308 128-128s-57.308-128-128-128c-70.692 0-128 57.308-128 128v0c0 70.692 57.308 128 128 128v0zM512 192c35.346 0 64 28.654 64 64s-28.654 64-64 64c-35.346 0-64-28.654-64-64v0c0-35.346 28.654-64 64-64v0zM512 448c-123.712 0-224 100.288-224 224s100.288 224 224 224c123.712 0 224-100.288 224-224v0c0-123.712-100.288-224-224-224v0zM512 832c-88.366 0-160-71.634-160-160s71.634-160 160-160c88.366 0 160 71.634 160 160v0c-0.102 88.324-71.676 159.898-159.99 160l-0.010 0zM512 608c-35.346 0-64 28.654-64 64s28.654 64 64 64c35.346 0 64-28.654 64-64v0c0-35.346-28.654-64-64-64v0zM800 0h-576c-53.019 0-96 42.981-96 96v0 832c0 53.019 42.981 96 96 96v0h576c53.019 0 96-42.981 96-96v0-832c0-53.019-42.981-96-96-96v0zM832 928c0 17.673-14.327 32-32 32v0h-576c-17.673 0-32-14.327-32-32v0-832c0-17.673 14.327-32 32-32v0h576c17.673 0 32 14.327 32 32v0 832z"></path></g>
</svg>
