<?xml version="1.0" encoding="utf-8"?>
<!-- Generator: Adobe Illustrator 17.0.0, SVG Export Plug-In . SVG Version: 6.00 Build 0)  -->
<!DOCTYPE svg PUBLIC "-//W3C//DTD SVG 1.1//EN" "http://www.w3.org/Graphics/SVG/1.1/DTD/svg11.dtd">
<svg version="1.1" id="Layer_1" xmlns="http://www.w3.org/2000/svg" xmlns:xlink="http://www.w3.org/1999/xlink" x="0px" y="0px"
	 width="1025px" height="1024px" viewBox="0 0 1025 1024" enable-background="new 0 0 1025 1024" xml:space="preserve">
<g><path d="M938.667 56.889h-853.333c-47.111 0-85.333 38.222-85.333 85.333v512c0 47.111 38.222 85.333 85.333 85.333h341.333l-42.667 170.667h-128c-15.644 0-28.444 12.8-28.444 28.444s12.8 28.444 28.444 28.444h512c15.644 0 28.444-12.8 28.444-28.444s-12.8-28.444-28.444-28.444h-128l-42.667-170.667h341.333c47.111 0 85.333-38.222 85.333-85.333v-512c0-47.111-38.222-85.333-85.333-85.333zM442.667 910.222l28.444-113.778h81.778l28.444 113.778h-138.667zM967.111 654.222c0 15.644-12.8 28.444-28.444 28.444h-853.333c-15.644 0-28.444-12.8-28.444-28.444v-85.333h910.222v85.333zM967.111 512h-910.222v-369.778c0-15.644 12.8-28.444 28.444-28.444h853.333c15.644 0 28.444 12.8 28.444 28.444v369.778z"></path></g>
</svg>
