<?xml version="1.0" encoding="utf-8"?>
<!-- Generator: Adobe Illustrator 17.0.0, SVG Export Plug-In . SVG Version: 6.00 Build 0)  -->
<!DOCTYPE svg PUBLIC "-//W3C//DTD SVG 1.1//EN" "http://www.w3.org/Graphics/SVG/1.1/DTD/svg11.dtd">
<svg version="1.1" id="Layer_1" xmlns="http://www.w3.org/2000/svg" xmlns:xlink="http://www.w3.org/1999/xlink" x="0px" y="0px"
	 width="1025px" height="1024px" viewBox="0 0 1025 1024" enable-background="new 0 0 1025 1024" xml:space="preserve">
<g><path d="M0 160v704c0 53.020 42.98 96 96 96h832c53.020 0 96-42.98 96-96v-704c0-53.020-42.98-96-96-96h-832c-53.020 0-96 42.98-96 96zM480 128v352h-416v-320c0-17.674 14.326-32 32-32h384zM64 864v-320h416v352h-384c-17.674 0-32-14.326-32-32zM544 896v-352h416v320c0 17.674-14.326 32-32 32h-384zM960 480h-416v-352h384c17.674 0 32 14.326 32 32v320z"></path></g>
</svg>
