<?xml version="1.0" encoding="utf-8"?>
<!-- Generator: Adobe Illustrator 17.0.0, SVG Export Plug-In . SVG Version: 6.00 Build 0)  -->
<!DOCTYPE svg PUBLIC "-//W3C//DTD SVG 1.1//EN" "http://www.w3.org/Graphics/SVG/1.1/DTD/svg11.dtd">
<svg version="1.1" id="Layer_1" xmlns="http://www.w3.org/2000/svg" xmlns:xlink="http://www.w3.org/1999/xlink" x="0px" y="0px"
	 width="1025px" height="1024px" viewBox="0 0 1025 1024" enable-background="new 0 0 1025 1024" xml:space="preserve">
<g><path d="M428.464 194.256l-26.402 301.744h525.55c0 0 0 0 0 0 10.432 0 18.998-7.987 19.918-18.179l0.006-0.077 24.5-280c0.049-0.523 0.076-1.13 0.076-1.744 0-11.046-8.954-20-20-20-0 0-0 0-0 0l-503.724-0c-0-0-0-0-0-0-10.432 0-18.998 7.987-19.918 18.179l-0.006 0.077zM560 288h-60c-2.209 0-4 1.791-4 4v0 24c0 2.209 1.791 4 4 4v0h24c19.873 0.024 35.976 16.127 36 35.998l0 0.002v24c-0.024 19.873-16.127 35.976-35.998 36l-60.002 0v-32h60c2.209 0 4-1.791 4-4v0-24c0-2.209-1.791-4-4-4v0h-24c-19.873-0.024-35.976-16.127-36-35.998l-0-0.002v-24c0.024-19.873 16.127-35.976 35.998-36l60.002-0zM688 416h-32v-48h-32v48h-32v-112c0-26.51 21.49-48 48-48s48 21.49 48 48v0zM800 416h-64c-8.837 0-16-7.163-16-16v0-144h32v128h48zM912 288h-48v32h32v32h-32v32h48v32h-64c-8.837 0-16-7.163-16-16v0-128c0-8.837 7.163-16 16-16v0h64z"></path><path d="M640 288c-8.832 0.010-15.99 7.168-16 15.999l-0 0.001v32h32v-32c-0.010-8.832-7.168-15.99-15.999-16l-0.001-0z"></path><path d="M592 704v-176h-171.458l162.464 176z"></path><path d="M296.656 315.4c-5.791-5.79-13.79-9.371-22.626-9.371-17.673 0-32 14.327-32 32s14.327 32 32 32c17.673 0 32-14.327 32-32 0-0-0-0.001-0-0.001l0 0c0-0.024 0-0.053 0-0.082 0-8.811-3.584-16.785-9.373-22.545l-0.001-0.001z"></path><path d="M899.114 623.704l-95.704-95.704h-179.41v192c0 8.837-7.163 16-16 16v0h-32c-4.643-0.001-8.825-1.979-11.748-5.138l-0.010-0.010-192-208c-2.626-2.842-4.237-6.656-4.237-10.846 0-2.036 0.38-3.984 1.074-5.775l-0.037 0.109 25.33-289.514-183.34 18.974c-20.689 2.281-36.959 18.551-39.222 39.041l-0.018 0.199-2.75 26.6c-51.212-11.005-89.042-55.895-89.042-109.622 0-61.856 50.144-112 112-112 61.85 0 111.99 50.134 112 111.981l0 0.001q0 1.33-0.032 2.662l31.814 5.302c0.144-2.652 0.218-5.312 0.218-7.964-0.009-79.522-64.477-143.984-144-143.984-79.529 0-144 64.471-144 144 0 70.242 50.293 128.738 116.834 141.441l0.9 0.143-19.934 192.63c-0.154 1.378-0.241 2.976-0.241 4.594 0 12.13 4.928 23.11 12.892 31.045l0.001 0.001 401.252 401.242c7.962 7.961 18.962 12.886 31.111 12.886s23.149-4.924 31.111-12.886l0-0 277.186-277.186c7.961-7.962 12.886-18.962 12.886-31.111s-4.924-23.149-12.886-31.111l-0-0zM212.686 570.842l-23.524-23.524c-6.516-6.492-10.548-15.474-10.548-25.397 0-1.327 0.072-2.637 0.213-3.926l-0.014 0.159 2.46-23.8 31.832 3.288-2.462 23.8c-0.014 0.126-0.022 0.272-0.022 0.419 0 1.102 0.448 2.1 1.172 2.821l0 0 23.522 23.522zM319.286 383.286c-11.582 11.582-27.582 18.745-45.255 18.745-35.346 0-64-28.654-64-64s28.654-64 64-64c17.673 0 33.673 7.163 45.255 18.745l-0-0c11.581 11.582 18.744 27.581 18.744 45.254s-7.163 33.672-18.744 45.254l0-0zM616.272 923.514c-6.515 6.515-15.515 10.545-25.457 10.545s-18.942-4.030-25.457-10.545l-16.672-16.672 22.628-22.63 16.672 16.672c0.724 0.724 1.724 1.171 2.828 1.171s2.104-0.448 2.828-1.171l16.2-16.2 22.628 22.628zM859.514 680.272l-16.2 16.2-22.628-22.628 16.2-16.2c0.724-0.724 1.171-1.724 1.171-2.828s-0.448-2.104-1.171-2.828l-16.672-16.672 22.63-22.628 16.672 16.672c6.515 6.515 10.545 15.515 10.545 25.457s-4.030 18.942-10.545 25.457l-0 0z"></path></g>
</svg>
