<?xml version="1.0" encoding="utf-8"?>
<!-- Generator: Adobe Illustrator 17.0.0, SVG Export Plug-In . SVG Version: 6.00 Build 0)  -->
<!DOCTYPE svg PUBLIC "-//W3C//DTD SVG 1.1//EN" "http://www.w3.org/Graphics/SVG/1.1/DTD/svg11.dtd">
<svg version="1.1" id="Layer_1" xmlns="http://www.w3.org/2000/svg" xmlns:xlink="http://www.w3.org/1999/xlink" x="0px" y="0px"
	 width="1025px" height="1024px" viewBox="0 0 1025 1024" enable-background="new 0 0 1025 1024" xml:space="preserve">
<g><path d="M512 64c123.6 0 224 100.4 224 224s-100.4 224-224 224-224-100.4-224-224 100.4-224 224-224zM768 704c105.8 0 192 86.2 192 192v64h-896v-64c0-105.8 86.2-192 192-192 170 0 134.6 32 256 32 121.8 0 85.8-32 256-32zM512 0c-159 0-288 129-288 288s129 288 288 288 288-129 288-288-129-288-288-288zM768 640c-184.8 0-142 32-256 32-113.6 0-71.4-32-256-32-141.4 0-256 114.6-256 256v64c0 35.4 28.6 64 64 64h896c35.4 0 64-28.6 64-64v-64c0-141.4-114.6-256-256-256z"></path></g>
</svg>
