<?xml version="1.0" encoding="utf-8"?>
<!-- Generator: Adobe Illustrator 17.0.0, SVG Export Plug-In . SVG Version: 6.00 Build 0)  -->
<!DOCTYPE svg PUBLIC "-//W3C//DTD SVG 1.1//EN" "http://www.w3.org/Graphics/SVG/1.1/DTD/svg11.dtd">
<svg version="1.1" id="Layer_1" xmlns="http://www.w3.org/2000/svg" xmlns:xlink="http://www.w3.org/1999/xlink" x="0px" y="0px"
	 width="1025px" height="1024px" viewBox="0 0 1025 1024" enable-background="new 0 0 1025 1024" xml:space="preserve">
<g><path d="M1003.75 238.998c0-30.898-25.136-56.032-56.032-56.032h-266.832v-140.024c0-23.68-19.264-42.942-42.942-42.942h-380.048c-23.678 0-42.942 19.262-42.942 42.942v400.374h-102.074c-8.274 0-14.98 6.706-14.98 14.98s6.706 14.98 14.98 14.98h102.076v31.878h-102.076c-8.274 0-14.98 6.706-14.98 14.98s6.706 14.98 14.98 14.98h102.076v5.85c0 8.274 6.706 14.98 14.98 14.98s14.98-6.706 14.98-14.98v-5.85h80.802c8.274 0 14.98-6.706 14.98-14.98s-6.706-14.98-14.98-14.98h-80.802v-31.878h80.802c8.274 0 14.98-6.706 14.98-14.98s-6.706-14.98-14.98-14.98h-80.802v-400.374c0-7.158 5.824-12.982 12.982-12.982h380.048c7.158 0 12.982 5.824 12.982 12.982v140.024h-37.482v-95.222c0.010-12.662-10.402-22.976-22.968-22.968h-285.112c-12.566-0.008-22.98 10.306-22.968 22.968v203.276c0 6.654 2.862 12.638 7.4 16.838 4.114 3.86 9.566 6.11 15.57 6.132h166.86c8.274 0 14.98-6.706 14.98-14.98s-6.706-14.98-14.98-14.98h-128.83l104.526-76.118 89.898 65.464v390.714h-279.926c-7.158 0-12.982-5.824-12.982-12.982v-36.224c0-8.274-6.706-14.98-14.98-14.98s-14.98 6.706-14.98 14.98v36.224c0 23.678 19.262 42.942 42.942 42.942h279.924v273.916c0 30.898 25.136 56.032 56.032 56.032h353.864c30.898 0 56.032-25.136 56.032-56.032v-340.208c0-8.274-6.706-14.98-14.98-14.98s-14.98 6.706-14.98 14.98v214.134h-406.010v-508.76h406.012v217.554c0 8.274 6.706 14.98 14.98 14.98s14.98-6.706 14.98-14.98zM552.45 94.734l-104.53 76.12-104.53-76.12zM312.356 269.574v-160.38l110.12 80.19zM583.486 109.194v74.748c-25.122 4.72-44.382 26.248-45.6 52.424l-64.52-46.982zM973.79 871.85v96.116c0 14.376-11.696 26.074-26.074 26.074h-353.864c-14.376 0-26.074-11.696-26.074-26.074v-96.116zM567.778 303.172v-64.174c0-14.376 11.696-26.074 26.074-26.074h353.864c14.376 0 26.074 11.696 26.074 26.074v64.174z"></path><path d="M797.672 936.002c0 14.85-12.038 26.888-26.888 26.888s-26.888-12.038-26.888-26.888c0-14.85 12.038-26.888 26.888-26.888s26.888 12.038 26.888 26.888z"></path><path d="M740.534 78.756h160.432c8.274 0 14.98-6.706 14.98-14.98s-6.706-14.98-14.98-14.98h-160.432c-8.274 0-14.98 6.706-14.98 14.98s6.706 14.98 14.98 14.98z"></path><path d="M740.534 141.846h57.136c8.274 0 14.98-6.706 14.98-14.98s-6.706-14.98-14.98-14.98h-57.136c-8.274 0-14.98 6.706-14.98 14.98s6.706 14.98 14.98 14.98z"></path><path d="M55.048 352.954l26.088-30.122c5.416-6.254 4.738-15.714-1.516-21.13-6.256-5.42-15.714-4.736-21.13 1.516l-34.582 39.93c-4.876 5.63-4.876 13.984-0.002 19.614l34.582 39.932c5.436 6.274 14.904 6.912 21.132 1.518 6.254-5.416 6.932-14.876 1.518-21.132z"></path><path d="M123.662 404.21c6.228 5.398 15.696 4.754 21.132-1.518l34.582-39.932c4.874-5.63 4.874-13.984-0.002-19.614l-34.582-39.93c-5.414-6.256-14.876-6.932-21.13-1.516-6.254 5.414-6.932 14.876-1.516 21.13l26.088 30.122-26.090 30.124c-5.414 6.258-4.734 15.718 1.518 21.134z"></path><path d="M841.382 703.022c6.122 0 8.46 2.002 13.578 6.384 6.696 5.734 15.868 13.588 33.064 13.588 8.274 0 14.98-6.706 14.98-14.98s-6.706-14.98-14.98-14.98c-6.122 0-8.458-2.002-13.576-6.384-6.696-5.734-15.868-13.588-33.066-13.588s-26.368 7.854-33.064 13.588c-5.118 4.382-7.454 6.384-13.578 6.384-6.118 0-8.456-2.002-13.572-6.384-6.694-5.734-15.866-13.588-33.062-13.588s-26.366 7.854-33.060 13.588c-5.116 4.382-7.452 6.384-13.572 6.384s-8.456-2.002-13.574-6.384c-6.694-5.734-15.866-13.588-33.060-13.588-8.274 0-14.98 6.706-14.98 14.98s6.706 14.98 14.98 14.98c6.118 0 8.456 2.002 13.572 6.384 6.694 5.734 15.866 13.588 33.062 13.588 17.198 0 26.366-7.854 33.060-13.588 5.116-4.382 7.452-6.384 13.572-6.384s8.456 2.002 13.574 6.384c6.694 5.734 15.866 13.588 33.060 13.588 17.2 0 26.37-7.854 33.066-13.588 5.118-4.382 7.452-6.384 13.576-6.384z"></path><path d="M781.168 752.102c-6.694-5.734-15.866-13.588-33.062-13.588s-26.366 7.854-33.060 13.588c-5.116 4.382-7.452 6.384-13.572 6.384s-8.456-2.002-13.574-6.384c-6.694-5.734-15.866-13.588-33.060-13.588-8.274 0-14.98 6.706-14.98 14.98s6.706 14.98 14.98 14.98c6.118 0 8.456 2.002 13.572 6.384 6.694 5.734 15.866 13.588 33.062 13.588 17.198 0 26.366-7.854 33.060-13.588 5.116-4.382 7.452-6.384 13.572-6.384s8.456 2.002 13.574 6.384c6.694 5.734 15.866 13.588 33.060 13.588 8.274 0 14.98-6.706 14.98-14.98s-6.706-14.98-14.98-14.98c-6.118 0-8.456-2.002-13.572-6.384z"></path><path d="M458.126 473.274c8.274 0 14.98-6.706 14.98-14.98s-6.706-14.98-14.98-14.98h-74.866c-8.274 0-14.98 6.706-14.98 14.98s6.706 14.98 14.98 14.98z"></path><path d="M782.356 377.748c-48.292 0-90.296 27.344-111.41 67.348l-52.582 5.562c-6.988 0.74-9.686 9.49-4.328 14.036l37.324 31.674-37.324 31.674c-5.358 4.546-2.658 13.296 4.328 14.036l45.742 4.838c17.682 48.18 64.016 82.648 118.25 82.648 69.426 0 125.908-56.482 125.908-125.908s-56.482-125.908-125.908-125.908zM782.356 599.566c-52.884 0-95.908-43.024-95.908-95.908s43.024-95.91 95.908-95.91 95.908 43.026 95.908 95.91-43.024 95.908-95.908 95.908z"></path><path d="M773.394 485.088c2.89 12.224-4.678 24.476-16.902 27.366s-24.476-4.678-27.366-16.902c-2.89-12.224 4.678-24.476 16.902-27.366s24.476 4.678 27.366 16.902z"></path></g>
</svg>
