<?xml version="1.0" encoding="utf-8"?>
<!-- Generator: Adobe Illustrator 17.0.0, SVG Export Plug-In . SVG Version: 6.00 Build 0)  -->
<!DOCTYPE svg PUBLIC "-//W3C//DTD SVG 1.1//EN" "http://www.w3.org/Graphics/SVG/1.1/DTD/svg11.dtd">
<svg version="1.1" id="Layer_1" xmlns="http://www.w3.org/2000/svg" xmlns:xlink="http://www.w3.org/1999/xlink" x="0px" y="0px"
	 width="1025px" height="1024px" viewBox="0 0 1025 1024" enable-background="new 0 0 1025 1024" xml:space="preserve">
<g><path d="M84.64 84.64c-1.404 1.482-2.54 3.235-3.32 5.169l-0.040 0.111c-0.809 1.789-1.281 3.88-1.281 6.080s0.472 4.291 1.319 6.175l-0.038-0.095c0.777 2.059 1.92 3.818 3.362 5.282l-0.002-0.002c2.924 2.87 6.935 4.641 11.36 4.641s8.436-1.771 11.363-4.643l-0.003 0.002c2.87-2.924 4.641-6.935 4.641-11.36s-1.771-8.436-4.643-11.363l0.002 0.003c-2.976-2.752-6.971-4.44-11.36-4.44s-8.384 1.688-11.371 4.45l0.011-0.010z"></path><path d="M137.92 81.28c-2.059 0.777-3.818 1.92-5.282 3.362l0.002-0.002c-2.87 2.924-4.641 6.935-4.641 11.36s1.771 8.436 4.643 11.363l-0.002-0.003c2.9 2.923 6.919 4.733 11.36 4.733 8.837 0 16-7.163 16-16 0-0.033-0-0.065-0-0.098l0 0.005c-0.067-4.413-1.822-8.404-4.646-11.367l0.006 0.007c-2.923-2.823-6.908-4.563-11.3-4.563-2.214 0-4.324 0.442-6.248 1.243l0.108-0.040z"></path><path d="M185.92 81.28c-2.045 0.82-3.798 1.956-5.288 3.367l0.008-0.007c-2.87 2.924-4.641 6.935-4.641 11.36s1.771 8.436 4.643 11.363l-0.002-0.003c1.501 1.366 3.247 2.497 5.159 3.314l0.121 0.046c1.792 0.784 3.878 1.253 6.070 1.28l0.010 0c0.048 0.001 0.104 0.001 0.161 0.001 8.748 0 15.84-7.092 15.84-15.84 0-0.057-0-0.113-0.001-0.169l0 0.009c-0.067-4.413-1.822-8.404-4.646-11.367l0.006 0.007c-2.962-2.793-6.966-4.51-11.371-4.51-2.184 0-4.27 0.422-6.18 1.189l0.112-0.040z"></path><path d="M240 304h224v32h-224v-32z"></path><path d="M240 400h224v32h-224v-32z"></path><path d="M240 496h304v32h-304v-32z"></path><path d="M240 592h208v32h-208v-32z"></path><path d="M240 688h128v32h-128v-32z"></path><path d="M240 784h96v32h-96v-32z"></path><path d="M930.736 224c-0.052-0-0.114-0-0.176-0-16.861 0-32.119 6.863-43.133 17.949l-0.003 0.003-55.424 55.424v-217.376c0-26.51-21.49-48-48-48v0h-704c-26.51 0-48 21.49-48 48v0 864c0 26.51 21.49 48 48 48v0h704c26.51 0 48-21.49 48-48v0-473.376l142.048-142.048c11.095-11.086 17.958-26.405 17.958-43.328 0-33.826-27.422-61.248-61.248-61.248-0.008 0-0.016 0-0.023 0l0.001-0zM64 80c0-8.837 7.163-16 16-16v0h704c8.837 0 16 7.163 16 16v0 48h-736zM800 944c0 8.837-7.163 16-16 16v0h-704c-8.837 0-16-7.163-16-16v0-784h736v169.376l-96 96v-48l-169.376-169.376h-374.624v704h544v-313.376l96-96zM418.016 711.36l-43.312 129.936 129.936-43.312 167.36-167.36v249.376h-480v-640h320v160h160v57.376l-208 208zM464 710.624l41.376 41.376-18.016 18.016-62.064 20.688 20.688-62.064zM544 262.624l105.376 105.376h-105.376zM528 729.376l-41.376-41.376 377.376-377.376 41.376 41.376zM951.424 305.952l-23.424 23.424-41.376-41.376 23.424-23.424c5.336-5.563 12.83-9.020 21.132-9.020 16.162 0 29.264 13.102 29.264 29.264 0 8.302-3.457 15.797-9.010 21.123l-0.010 0.010z"></path></g>
</svg>
