<?xml version="1.0" encoding="utf-8"?>
<!-- Generator: Adobe Illustrator 17.0.0, SVG Export Plug-In . SVG Version: 6.00 Build 0)  -->
<!DOCTYPE svg PUBLIC "-//W3C//DTD SVG 1.1//EN" "http://www.w3.org/Graphics/SVG/1.1/DTD/svg11.dtd">
<svg version="1.1" id="Layer_1" xmlns="http://www.w3.org/2000/svg" xmlns:xlink="http://www.w3.org/1999/xlink" x="0px" y="0px"
	 width="1025px" height="1024px" viewBox="0 0 1025 1024" enable-background="new 0 0 1025 1024" xml:space="preserve">
<g><path d="M0 938.672h597.333v85.333h-597.333v-85.333z"></path><path d="M512 852.651c0-11.315-4.495-22.17-12.497-30.174-8.001-7.999-18.854-12.493-30.17-12.493h-341.333c-11.316 0-22.168 4.494-30.17 12.493-8.001 8.004-12.497 18.859-12.497 30.174v43.361h426.667v-43.361z"></path><path d="M580.557 503.802c-19.878 21.188-36.549 45.172-49.48 71.191l351.19 351.186c7.999 7.999 18.853 12.493 30.162 12.493 11.315 0 22.164-4.494 30.168-12.493l60.342-60.342c3.959-3.959 7.105-8.664 9.25-13.841 2.139-5.177 3.248-10.724 3.248-16.327s-1.109-11.15-3.248-16.327c-2.145-5.177-5.291-9.882-9.25-13.847l-351.192-351.091c-26.061 12.818-50.057 29.469-71.191 49.397z"></path><path d="M369.362 292.604c-32.265 29.943-69.615 53.888-110.293 70.709l220.522 220.521c16.972-40.606 40.941-77.918 70.816-110.238 32.271-29.942 69.618-53.89 110.294-70.72l-220.534-220.48c-16.978 40.592-40.942 77.893-70.806 110.208z"></path><path d="M520.142 21.15l-60.331 60.33c-16.66 16.66-16.66 43.671 0 60.331l241.322 241.323c16.663 16.66 43.674 16.66 60.331 0l60.331-60.331c16.663-16.659 16.663-43.671 0-60.331l-241.323-241.322c-16.659-16.66-43.67-16.66-60.33 0z"></path><path d="M158.1 383.111l-60.331 60.331c-16.659 16.66-16.659 43.671 0 60.331l241.323 241.324c16.66 16.657 43.671 16.657 60.331 0l60.331-60.331c16.66-16.663 16.66-43.674 0-60.331l-241.323-241.324c-16.66-16.659-43.671-16.659-60.331 0z"></path></g>
</svg>
