<?xml version="1.0" encoding="utf-8"?>
<!-- Generator: Adobe Illustrator 17.0.0, SVG Export Plug-In . SVG Version: 6.00 Build 0)  -->
<!DOCTYPE svg PUBLIC "-//W3C//DTD SVG 1.1//EN" "http://www.w3.org/Graphics/SVG/1.1/DTD/svg11.dtd">
<svg version="1.1" id="Layer_1" xmlns="http://www.w3.org/2000/svg" xmlns:xlink="http://www.w3.org/1999/xlink" x="0px" y="0px"
	 width="1025px" height="1024px" viewBox="0 0 1025 1024" enable-background="new 0 0 1025 1024" xml:space="preserve">
<g><path d="M190.448 972.8h643.073c67.41 0 122.199-54.784 122.199-122.199v-608.938c0-67.413-54.789-122.198-122.199-122.198h-48.471v-34.133c0-18.774-15.36-34.132-34.135-34.132s-34.13 15.359-34.13 34.132v34.133h-409.6v-34.133c0-18.774-15.362-34.132-34.136-34.132s-34.132 15.359-34.132 34.132v34.133h-48.469c-67.413 0-122.198 54.785-122.198 122.198v608.938c0 67.415 54.785 122.199 122.198 122.199zM136.518 241.663c0-29.695 24.234-53.929 53.929-53.929h48.469v34.133c0 18.774 15.359 34.132 34.132 34.132s34.132-15.359 34.132-34.132v-34.133h409.603v34.133c0 18.774 15.355 34.132 34.13 34.132s34.135-15.359 34.135-34.132v-34.133h48.466c29.696 0 53.929 24.234 53.929 53.929v99.671h-750.926v-99.671zM136.518 409.599h750.931v441.002c0 29.696-24.233 53.929-53.929 53.929h-643.073c-29.695 0-53.929-24.233-53.929-53.929v-441.002z"></path></g>
</svg>
