<?xml version="1.0" encoding="utf-8"?>
<!-- Generator: Adobe Illustrator 17.0.0, SVG Export Plug-In . SVG Version: 6.00 Build 0)  -->
<!DOCTYPE svg PUBLIC "-//W3C//DTD SVG 1.1//EN" "http://www.w3.org/Graphics/SVG/1.1/DTD/svg11.dtd">
<svg version="1.1" id="Layer_1" xmlns="http://www.w3.org/2000/svg" xmlns:xlink="http://www.w3.org/1999/xlink" x="0px" y="0px"
	 width="1025px" height="1024px" viewBox="0 0 1025 1024" enable-background="new 0 0 1025 1024" xml:space="preserve">
<g><path d="M773.376 608.804c-71.173 0-129.075 57.902-129.075 129.075s57.902 129.075 129.075 129.075c71.188 0 129.075-57.902 129.075-129.075s-57.902-129.075-129.075-129.075zM773.376 802.417c-35.594 0-64.538-28.943-64.538-64.538s28.943-64.538 64.538-64.538c35.594 0 64.538 28.943 64.538 64.538s-28.943 64.538-64.538 64.538z"></path><path d="M332.376 608.804c-71.174 0-129.076 57.902-129.076 129.075s57.902 129.075 129.076 129.075c71.174 0 129.076-57.902 129.076-129.075s-57.902-129.075-129.076-129.075zM332.376 802.417c-35.592 0-64.538-28.943-64.538-64.538s28.946-64.538 64.538-64.538c35.582 0 64.538 28.943 64.538 64.538s-28.946 64.538-64.538 64.538z"></path><path d="M860.314 239.351c-5.489-10.896-16.64-17.77-28.841-17.77h-169.948v64.538h150.052l87.864 174.768 57.677-29-96.804-192.537z"></path><path d="M676.567 706.693h-244.167v64.538h244.167v-64.538z"></path><path d="M235.582 706.693h-111.864c-17.824 0-32.268 14.444-32.268 32.266s14.446 32.266 32.268 32.266h111.866c17.824 0 32.268-14.444 32.268-32.266s-14.446-32.266-32.27-32.266z"></path><path d="M1017.242 509.42l-63.468-81.748c-6.098-7.874-15.514-12.478-25.482-12.478h-234.491v-225.882c0-17.824-14.444-32.268-32.266-32.268h-537.817c-17.824 0-32.268 14.446-32.268 32.268s14.446 32.268 32.268 32.268h505.545v225.882c0 17.824 14.449 32.268 32.266 32.268h250.957l46.996 60.538v166.42h-89.277c-17.828 0-32.271 14.444-32.271 32.266 0 17.828 14.449 32.271 32.271 32.271h121.544c17.823 0 32.271-14.449 32.271-32.271v-209.741c0-7.168-2.386-14.136-6.779-19.794z"></path><path d="M233.406 543.196h-148.438c-17.824 0-32.268 14.444-32.268 32.266s14.446 32.266 32.268 32.266h148.436c17.824 0 32.268-14.444 32.268-32.266 0.002-17.823-14.444-32.266-32.266-32.266z"></path><path d="M307.63 416.266h-275.362c-17.822 0-32.268 14.446-32.268 32.27s14.446 32.268 32.268 32.268h275.362c17.824 0 32.268-14.446 32.268-32.268s-14.444-32.27-32.268-32.27z"></path><path d="M360.33 289.344h-275.362c-17.824 0-32.268 14.446-32.268 32.268 0 17.824 14.446 32.268 32.268 32.268h275.362c17.824 0 32.268-14.446 32.268-32.268 0.002-17.822-14.444-32.268-32.268-32.268z"></path></g>
</svg>
