<?xml version="1.0" encoding="utf-8"?>
<!-- Generator: Adobe Illustrator 17.0.0, SVG Export Plug-In . SVG Version: 6.00 Build 0)  -->
<!DOCTYPE svg PUBLIC "-//W3C//DTD SVG 1.1//EN" "http://www.w3.org/Graphics/SVG/1.1/DTD/svg11.dtd">
<svg version="1.1" id="Layer_1" xmlns="http://www.w3.org/2000/svg" xmlns:xlink="http://www.w3.org/1999/xlink" x="0px" y="0px"
	 width="1025px" height="1024px" viewBox="0 0 1025 1024" enable-background="new 0 0 1025 1024" xml:space="preserve">
<g><path d="M512.001 775.462c260.998 0 437.145-210.537 437.145-275.787 0-64.929-176.467-275.464-437.145-275.464-257.143 0-437.143 210.536-437.143 275.464 0 65.25 179.679 275.787 437.143 275.787zM512.322 675.174c-98.036 0-176.143-80.035-176.465-175.178-0.321-98.357 78.429-175.5 176.465-175.5 97.393 0 176.145 77.464 176.145 175.5 0 95.143-78.753 175.178-176.145 175.178zM512.322 565.247c36 0 65.892-29.571 65.892-65.25 0-36-29.892-65.893-65.892-65.893-36.643 0-66.214 29.893-66.214 65.893 0 35.679 29.571 65.25 66.214 65.25z"></path></g>
</svg>
