<?xml version="1.0" encoding="utf-8"?>
<!-- Generator: Adobe Illustrator 17.0.0, SVG Export Plug-In . SVG Version: 6.00 Build 0)  -->
<!DOCTYPE svg PUBLIC "-//W3C//DTD SVG 1.1//EN" "http://www.w3.org/Graphics/SVG/1.1/DTD/svg11.dtd">
<svg version="1.1" id="Layer_1" xmlns="http://www.w3.org/2000/svg" xmlns:xlink="http://www.w3.org/1999/xlink" x="0px" y="0px"
	 width="1025px" height="1024px" viewBox="0 0 1025 1024" enable-background="new 0 0 1025 1024" xml:space="preserve">
<g><path d="M220.14 358.25l26.678-19.607 26.036 19.607c10.928 8.035 23.464-0.643 19.286-12.857l-10.607-32.143 26.357-19.607c9.965-7.393 5.786-21.536-6.429-21.536h-32.786l-10.929-34.393c-3.536-10.607-18.322-10.607-21.857 0l-10.928 34.393h-33.107c-12.536 0-16.714 14.143-6.75 21.536l26.678 19.607-10.286 32.143c-4.178 12.214 8.036 20.892 18.643 12.857zM409.461 332.857h403.716c17.357 0 30.855-13.5 30.855-30.857s-13.499-30.857-30.855-30.857h-403.716c-17.357 0-30.859 13.5-30.859 30.857s13.502 30.857 30.859 30.857zM220.14 555.608l26.678-19.61 26.036 19.61c10.928 8.357 23.464-0.644 19.286-12.859l-10.607-32.143 26.357-19.606c9.965-7.395 5.786-21.537-6.429-21.537h-32.786l-10.929-34.392c-3.536-10.609-18.322-10.609-21.857 0l-10.928 34.392h-33.107c-12.536 0-16.714 14.142-6.75 21.537l26.678 19.606-10.286 32.143c-4.178 12.215 8.036 20.893 18.643 12.859zM409.461 530.534h403.716c17.357 0 30.855-13.499 30.855-30.855s-13.499-30.859-30.855-30.859h-403.716c-17.357 0-30.859 13.502-30.859 30.859s13.502 30.855 30.859 30.855zM220.14 753.605l26.678-19.606 26.036 19.606c10.928 8.36 23.464-0.64 19.286-12.855l-10.607-32.143 26.357-19.61c9.965-7.391 5.786-21.533-6.429-21.533h-32.786l-10.929-34.395c-3.536-10.606-18.322-10.606-21.857 0l-10.928 34.395h-33.107c-12.536 0-16.714 14.142-6.75 21.533l26.678 19.61-10.286 32.143c-4.178 12.215 8.036 20.893 18.643 12.855zM409.461 728.214h403.716c17.357 0 30.855-13.499 30.855-30.855s-13.499-30.859-30.855-30.859h-403.716c-17.357 0-30.859 13.502-30.859 30.859s13.502 30.855 30.859 30.855z"></path></g>
</svg>
