<?xml version="1.0" encoding="utf-8"?>
<!-- Generator: Adobe Illustrator 17.0.0, SVG Export Plug-In . SVG Version: 6.00 Build 0)  -->
<!DOCTYPE svg PUBLIC "-//W3C//DTD SVG 1.1//EN" "http://www.w3.org/Graphics/SVG/1.1/DTD/svg11.dtd">
<svg version="1.1" id="Layer_1" xmlns="http://www.w3.org/2000/svg" xmlns:xlink="http://www.w3.org/1999/xlink" x="0px" y="0px"
	 width="1025px" height="1024px" viewBox="0 0 1025 1024" enable-background="new 0 0 1025 1024" xml:space="preserve">
<g><path d="M356.107 808.894h311.786c43.070 0 64.285-21.215 64.285-68.144v-240.75c0-42.43-17.357-63.963-53.358-67.5v-79.394c0-122.143-81.32-180.964-166.821-180.964s-166.821 58.821-166.821 180.964v80.356c-33.429 5.146-53.357 26.357-53.357 66.538v240.75c0 46.928 21.214 68.144 64.286 68.144zM406.894 347.321c0-74.893 47.572-116.036 105.106-116.036 57.216 0 105.106 41.143 105.106 116.036v84.536l-210.213 0.322v-84.858z"></path></g>
</svg>
