<?xml version="1.0" encoding="utf-8"?>
<!-- Generator: Adobe Illustrator 17.0.0, SVG Export Plug-In . SVG Version: 6.00 Build 0)  -->
<!DOCTYPE svg PUBLIC "-//W3C//DTD SVG 1.1//EN" "http://www.w3.org/Graphics/SVG/1.1/DTD/svg11.dtd">
<svg version="1.1" id="Layer_1" xmlns="http://www.w3.org/2000/svg" xmlns:xlink="http://www.w3.org/1999/xlink" x="0px" y="0px"
	 width="1025px" height="1024px" viewBox="0 0 1025 1024" enable-background="new 0 0 1025 1024" xml:space="preserve">
<g><path d="M631.929 465.251l88.887-88.887 44.442 44.442 44.442-44.442-266.653-266.65-44.442 44.442 44.442 44.442-222.208 222.212-44.442-44.442-44.442 44.442 266.65 266.65 44.442-44.442-44.442-44.442 88.887-88.883 282.587 282.587 44.442-44.442-282.591-282.587zM365.279 465.251l222.208-222.21 88.887 88.884-222.212 222.209-88.883-88.883z"></path><path d="M549.435 820.012c0-51.983-42.291-94.274-94.274-94.274h-188.552c-51.984 0-94.276 42.291-94.276 94.274v31.426h-62.851v62.852h502.804v-62.852h-62.852v-31.426zM235.183 820.012c0-17.328 14.098-31.426 31.425-31.426h188.552c17.328 0 31.422 14.098 31.422 31.426v31.426h-251.4v-31.426z"></path></g>
</svg>
