<?xml version="1.0" encoding="utf-8"?>
<!-- Generator: Adobe Illustrator 17.0.0, SVG Export Plug-In . SVG Version: 6.00 Build 0)  -->
<!DOCTYPE svg PUBLIC "-//W3C//DTD SVG 1.1//EN" "http://www.w3.org/Graphics/SVG/1.1/DTD/svg11.dtd">
<svg version="1.1" id="Layer_1" xmlns="http://www.w3.org/2000/svg" xmlns:xlink="http://www.w3.org/1999/xlink" x="0px" y="0px"
	 width="1025px" height="1024px" viewBox="0 0 1025 1024" enable-background="new 0 0 1025 1024" xml:space="preserve">
<g><path d="M948.229 743.117l-133.801-133.862c-17.971-17.874-42.030-27.725-67.743-27.725-26.762 0-52.024 10.537-71.127 29.65l-52.086 52.070c-40.468-22.492-94.264-53.432-150.111-109.281-55.783-55.804-86.727-109.439-109.338-150.13l52.134-52.095c38.76-38.841 39.553-101.154 1.773-138.899l-133.775-133.779c-17.919-17.969-41.981-27.865-67.759-27.865-26.161 0-50.909 10.072-69.9 28.405-11.489 9.253-69.146 60.149-90.634 165.114-30.086 146.919 39.040 288.279 238.598 487.918 222.925 222.853 413.231 240.174 466.253 240.174 11.034 0 17.695-0.681 19.471-0.891 103.967-12.186 141.189-58.353 168.371-92.068 35.215-43.694 35.092-101.187-0.328-136.735zM903.834 843.796c-25.549 31.688-49.679 61.609-130.33 71.066-0.041 0.005-4.454 0.497-12.79 0.497-47.437 0-218.327-16.108-425.632-223.345-184.029-184.106-248.621-310.361-222.942-435.775 18.742-91.553 68.502-130.467 70.436-131.945l1.716-1.268 1.505-1.509c8.307-8.299 19.172-12.872 30.596-12.872 10.401 0 20.022 3.899 27.114 11.014l133.806 133.81c15.395 15.38 14.576 41.261-1.804 57.675l-59.927 59.923c-15.365 16.923-13.557 39.794-5.093 54.688 24.422 44.072 57.874 104.43 122.244 168.819 64.155 64.159 124.426 97.582 168.376 121.958 4.403 2.473 13.486 6.615 24.858 6.615 13.425 0 25.754-5.683 34.877-16.041l55.332-55.316c8.264-8.269 19.092-12.82 30.5-12.82 10.424 0 20.096 3.912 27.172 10.952l133.714 133.77c16.983 17.044 9.974 43.105-3.727 60.104z"></path><path d="M609.966 191.947c49.352 5.68 107.464 35.574 148.045 76.157 40.96 40.959 70.927 99.66 76.339 149.55 1.597 14.717 14.039 25.625 28.518 25.625 1.034 0 2.084-0.058 3.133-0.168 15.77-1.712 27.167-15.882 25.457-31.653-6.845-63.064-42.414-133.557-92.826-183.971-49.94-49.943-119.716-85.425-182.098-92.606-15.754-1.827-30.003 9.494-31.821 25.249-1.812 15.755 9.487 30.002 25.252 31.817z"></path><path d="M583.142 312.268c26.696 3.075 63.636 22.875 87.834 47.075 24.407 24.41 44.247 61.704 47.171 88.684 1.597 14.722 14.044 25.629 28.518 25.629 1.034 0 2.079-0.057 3.128-0.168 15.77-1.712 27.172-15.882 25.462-31.653-4.997-46.064-35.574-95.026-63.662-123.113-27.837-27.838-76.319-58.273-121.882-63.523-15.775-1.834-30.003 9.49-31.821 25.245-1.812 15.759 9.492 30.009 25.252 31.825z"></path></g>
</svg>
